<?xml version="1.0" encoding="iso-8859-1"?>
<!-- Generator: Adobe Illustrator 22.1.0, SVG Export Plug-In . SVG Version: 6.00 Build 0)  -->
<svg version="1.1" id="Layer_1" xmlns="http://www.w3.org/2000/svg" xmlns:xlink="http://www.w3.org/1999/xlink" x="0px" y="0px"
	 viewBox="0 0 26 22" style="enable-background:new 0 0 26 22;" xml:space="preserve">
<g id="filing-7">
	<path d="M8,0H0v22h8V0z M7,21H1V1h6V21z"/>
	<rect x="2" y="3" width="4" height="1"/>
	<rect x="2" y="5" width="4" height="1"/>
	<rect x="2" y="7" width="4" height="1"/>
	<path d="M4,20c1.104,0,2-0.896,2-2c0-1.104-0.896-2-2-2c-1.104,0-2,0.896-2,2C2,19.104,2.896,20,4,20z M4,17c0.552,0,1,0.448,1,1
		s-0.448,1-1,1c-0.552,0-1-0.448-1-1S3.448,17,4,17z"/>
	<path d="M17,0H9v22h8V0z M16,21h-6V1h6V21z"/>
	<rect x="11" y="3" width="4" height="1"/>
	<rect x="11" y="5" width="4" height="1"/>
	<rect x="11" y="7" width="4" height="1"/>
	<path d="M13,20c1.104,0,2-0.896,2-2c0-1.104-0.896-2-2-2c-1.104,0-2,0.896-2,2C11,19.104,11.896,20,13,20z M13,17
		c0.552,0,1,0.448,1,1s-0.448,1-1,1c-0.552,0-1-0.448-1-1S12.448,17,13,17z"/>
	<path d="M26,0h-8v22h8V0z M25,21h-6V1h6V21z"/>
	<rect x="20" y="3" width="4" height="1"/>
	<rect x="20" y="5" width="4" height="1"/>
	<rect x="20" y="7" width="4" height="1"/>
	<path d="M22,20c1.104,0,2-0.896,2-2c0-1.104-0.896-2-2-2c-1.104,0-2,0.896-2,2C20,19.104,20.896,20,22,20z M22,17
		c0.552,0,1,0.448,1,1s-0.448,1-1,1c-0.552,0-1-0.448-1-1S21.448,17,22,17z"/>
</g>
</svg>
