<?xml version="1.0" encoding="UTF-8" standalone="no"?> <svg xmlns="http://www.w3.org/2000/svg" viewBox="0 0 64 64"><g id="Layer_30" data-name="Layer 30"><path d="M4,24.57a1,1,0,0,0,1-1V13H15.57a1,1,0,0,0,0-2H4a1,1,0,0,0-1,1V23.57A1,1,0,0,0,4,24.57Z"/><path d="M15.57,51H5V40.43a1,1,0,0,0-2,0V52a1,1,0,0,0,1,1H15.57a1,1,0,0,0,0-2Z"/><path d="M60,11H48.43a1,1,0,0,0,0,2H59V23.57a1,1,0,0,0,2,0V12A1,1,0,0,0,60,11Z"/><path d="M60,39.43a1,1,0,0,0-1,1V51H48.43a1,1,0,0,0,0,2H60a1,1,0,0,0,1-1V40.43A1,1,0,0,0,60,39.43Z"/><path d="M7.46,17.07V46.93a1,1,0,1,0,2,0V17.07a1,1,0,1,0-2,0Z"/><path d="M11.39,17.07V46.93a1,1,0,0,0,2,0V17.07a1,1,0,0,0-2,0Z"/><path d="M16.31,16.07a1,1,0,0,0-1,1V46.93a1,1,0,0,0,2,0V17.07A1,1,0,0,0,16.31,16.07Z"/><path d="M20.23,16.07a1,1,0,0,0-1,1V46.93a1,1,0,0,0,2,0V17.07A1,1,0,0,0,20.23,16.07Z"/><path d="M24.15,16.07a1,1,0,0,0-1,1V46.93a1,1,0,0,0,2,0V17.07A1,1,0,0,0,24.15,16.07Z"/><path d="M28.08,16.07a1,1,0,0,0-1,1V46.93a1,1,0,0,0,2,0V17.07A1,1,0,0,0,28.08,16.07Z"/><path d="M32,16.07a1,1,0,0,0-1,1V46.93a1,1,0,1,0,2,0V17.07A1,1,0,0,0,32,16.07Z"/><path d="M35.92,16.07a1,1,0,0,0-1,1V46.93a1,1,0,0,0,2,0V17.07A1,1,0,0,0,35.92,16.07Z"/><path d="M39.85,16.07a1,1,0,0,0-1,1V46.93a1,1,0,0,0,2,0V17.07A1,1,0,0,0,39.85,16.07Z"/><path d="M43.77,16.07a1,1,0,0,0-1,1V46.93a1,1,0,0,0,2,0V17.07A1,1,0,0,0,43.77,16.07Z"/><path d="M48.69,46.93V17.07a1,1,0,1,0-2,0V46.93a1,1,0,1,0,2,0Z"/><path d="M52.61,46.93V17.07a1,1,0,0,0-2,0V46.93a1,1,0,0,0,2,0Z"/><path d="M56.54,46.93V17.07a1,1,0,0,0-2,0V46.93a1,1,0,0,0,2,0Z"/></g></svg>