<?xml version="1.0" encoding="UTF-8" standalone="no"?>
<!-- Created with Inkscape (http://www.inkscape.org/) -->

<svg
   xmlns:dc="http://purl.org/dc/elements/1.1/"
   xmlns:cc="http://creativecommons.org/ns#"
   xmlns:rdf="http://www.w3.org/1999/02/22-rdf-syntax-ns#"
   xmlns:svg="http://www.w3.org/2000/svg"
   xmlns="http://www.w3.org/2000/svg"
   xmlns:sodipodi="http://sodipodi.sourceforge.net/DTD/sodipodi-0.dtd"
   xmlns:inkscape="http://www.inkscape.org/namespaces/inkscape"
   width="64"
   height="64"
   viewBox="0 0 16.933333 16.933333"
   version="1.1"
   id="svg8"
   inkscape:version="0.92.3 (2405546, 2018-03-11)"
   sodipodi:docname="15-Buying.svg">
  <defs
     id="defs2" />
  <sodipodi:namedview
     id="base"
     pagecolor="#ffffff"
     bordercolor="#666666"
     borderopacity="1.0"
     inkscape:pageopacity="0.0"
     inkscape:pageshadow="2"
     inkscape:zoom="7.9999996"
     inkscape:cx="17.728371"
     inkscape:cy="31.436128"
     inkscape:document-units="px"
     inkscape:current-layer="layer2"
     showgrid="false"
     inkscape:snap-smooth-nodes="true"
     inkscape:snap-page="true"
     inkscape:snap-midpoints="false"
     inkscape:snap-intersection-paths="true"
     inkscape:object-paths="true"
     inkscape:object-nodes="true"
     units="px"
     inkscape:snap-bbox="true"
     inkscape:bbox-paths="false"
     inkscape:snap-bbox-midpoints="false"
     inkscape:window-width="1920"
     inkscape:window-height="1040"
     inkscape:window-x="0"
     inkscape:window-y="0"
     inkscape:window-maximized="1"
     inkscape:snap-grids="true"
     inkscape:snap-to-guides="false"
     inkscape:snap-bbox-edge-midpoints="false"
     inkscape:snap-nodes="true"
     inkscape:snap-others="false"
     inkscape:bbox-nodes="true"
     showguides="true"
     inkscape:guide-bbox="true"
     inkscape:measure-start="0,0"
     inkscape:measure-end="0,0"
     inkscape:snap-global="true">
    <inkscape:grid
       type="xygrid"
       id="grid815"
       enabled="true" />
  </sodipodi:namedview>
  <metadata
     id="metadata5">
    <rdf:RDF>
      <cc:Work
         rdf:about="">
        <dc:format>image/svg+xml</dc:format>
        <dc:type
           rdf:resource="http://purl.org/dc/dcmitype/StillImage" />
        <dc:title />
      </cc:Work>
    </rdf:RDF>
  </metadata>
  <g
     inkscape:groupmode="layer"
     id="layer2"
     inkscape:label="15-Buying">
    <path
       style="color:#000000;font-style:normal;font-variant:normal;font-weight:normal;font-stretch:normal;font-size:medium;line-height:normal;font-family:sans-serif;font-variant-ligatures:normal;font-variant-position:normal;font-variant-caps:normal;font-variant-numeric:normal;font-variant-alternates:normal;font-feature-settings:normal;text-indent:0;text-align:start;text-decoration:none;text-decoration-line:none;text-decoration-style:solid;text-decoration-color:#000000;letter-spacing:normal;word-spacing:normal;text-transform:none;writing-mode:lr-tb;direction:ltr;text-orientation:mixed;dominant-baseline:auto;baseline-shift:baseline;text-anchor:start;white-space:normal;shape-padding:0;clip-rule:nonzero;display:inline;overflow:visible;visibility:visible;opacity:1;isolation:auto;mix-blend-mode:normal;color-interpolation:sRGB;color-interpolation-filters:linearRGB;solid-color:#000000;solid-opacity:1;vector-effect:none;fill:#000000;fill-opacity:1;fill-rule:nonzero;stroke:none;stroke-width:0.529167;stroke-linecap:butt;stroke-linejoin:round;stroke-miterlimit:4;stroke-dasharray:none;stroke-dashoffset:0;stroke-opacity:1;color-rendering:auto;image-rendering:auto;shape-rendering:auto;text-rendering:auto;enable-background:accumulate"
       d="m 10.318226,0.52916693 c -0.8887093,0 -1.6706893,0.45829 -2.3187193,1.05833007 l -6.14794,5.2e-4 c -0.44239,4e-5 -0.79272,0.357552 -0.79272,0.792712 v 3.7052 c 0,0.43517 0.35132,0.79326 0.79272,0.7932398 l 7.9375,-5.291e-4 c 0.4395393,0 0.7942593,-0.35316 0.7942593,-0.7927099 V 5.8208289 h 1.32292 c 0.4583,0 0.96772,-0.22005 1.37511,-0.42374 0.2037,-0.10185 0.38735,-0.2029798 0.52917,-0.27389 0.14181,-0.0709 0.17553,-0.0795 0.21755,-0.0956 h 0.2589 c 5.29e-4,0.1461702 0.11945,0.2646302 0.26562,0.2640701 h 1.58595 c 0.14617,5.555e-4 0.2651,-0.1179 0.26562,-0.2640702 V 0.79271693 c -5.2e-4,-0.1461699 -0.11945,-0.26411 -0.26562,-0.26355 h -1.58595 c -0.14617,-5.6e-4 -0.2651,0.11764 -0.26562,0.26406 l -0.26355,5.2e-4 c -0.23289,0 -0.8318,-0.0645 -1.5291,-0.13126 -0.69702,-0.0668 -1.49612,-0.13332 -2.1761,-0.13332 z m 0,0.52968007 c 0.64294,0 1.4241,0.0631 2.12856,0.13126 0.19949,0.0143 1.23091,0.1328099 1.57664,0.1328099 0.0873,-2.99e-5 0.17579,4e-5 0.26355,0 v 3.175002 h -0.26355 c -0.14143,0 -0.29322,0.0745 -0.44906,0.1524399 -0.15585,0.0779 -0.33599,0.17472 -0.52917,0.2713001 -0.38636,0.1931799 -0.79926,0.3694901 -1.13895,0.3694901 h -1.85157 c -0.2977393,0 -0.5291593,-0.2381401 -0.5291593,-0.52968 0,-0.2904299 0.23143,-0.5281401 0.5291593,-0.5281401 h 1.58802 c 0.34425,-0.005 0.35886,-0.51676 0,-0.52916 h -1.05885 L 10.583317,2.380729 C 10.583186,1.945579 10.234556,1.587497 9.7890667,1.587497 h -0.9555 c 0.4614,-0.3246401 0.96464,-0.52865 1.4846593,-0.52865 z m 4.49844,0 h 1.05833 v 3.703652 l -1.05833,-5.05e-4 z M 9.7890667,2.116669 c 0.15116,-1e-5 0.2650493,0.12014 0.2650993,0.26406 l 5.03e-4,1.3234399 c -0.1947793,0 -0.3738593,0.0507 -0.5296793,0.14107 v -0.14004 c 5.56e-4,-0.14693 -0.11868,-0.26617 -0.26562,-0.2656199 -0.29538,0 -0.5271,-0.2404999 -0.5271,-0.52968 -4.93e-4,-0.14541 -0.119683,-0.2651 -0.266123,-0.26355 h -5.29012 c -0.14644,-0.002 -0.26562,0.11814 -0.26613,0.26355 0,0.2891801 -0.23171,0.52968 -0.5271,0.52968 -0.14693,-5.557e-4 -0.26618,0.1186899 -0.26562,0.2656199 v 1.05678 c -5.6e-4,0.14694 0.11869,0.2661901 0.26562,0.2656199 0.29539,0 0.5271,0.2405103 0.5271,0.5296803 5e-4,0.1454099 0.11969,0.2651098 0.26613,0.2635498 h 5.29012 c 0.14644,0.00201 0.26563,-0.1181399 0.26613,-0.2635498 0,-0.2147502 0.12382,-0.4001501 0.31058,-0.48265 0.1332,0.43566 0.53694,0.7461998 1.0113093,0.7461998 V 6.085929 c 0,0.1424 -0.1139393,0.2635498 -0.2650993,0.2635498 l -7.9375,5.292e-4 c -0.14238,1.01e-5 -0.26355,-0.1129101 -0.26355,-0.26407 V 2.380729 c 0,-0.15115 0.12067,-0.26354 0.26355,-0.26355 z m -6.38256,1.0593598 h 4.82916 c 0.0874,0.3314801 0.34681,0.6490602 0.76016,0.7596503 v 0.59583 c -0.41791,0.11181 -0.6728,0.4281699 -0.76016,0.7596399 h -4.82916 c -0.0874,-0.33147 -0.34681,-0.6490499 -0.7601599,-0.7596399 v -0.59583 C 3.0596967,3.825089 3.3191467,3.5075089 3.4065067,3.1760288 Z M 2.1166668,8.201569 v 1.0588498 c 0,0.203 0.0753,0.3876 0.20153,0.52865 -0.12578,0.13975 -0.20153,0.3233692 -0.20153,0.5291592 v 0.52969 c -0.26476,3e-5 -0.5295101,-2.65e-4 -0.79427,0 -0.44539005,7e-5 -0.79323005,0.35962 -0.79323005,0.79478 v 3.96875 c 0,0.43516 0.35187,0.79268 0.79323005,0.79272 h 1.58905 c 0.2381,-2e-5 0.452041,-0.10612 0.59686,-0.27027 l 0.18707,-0.007 c 1.3221009,0 2.3601999,0.27699 3.9785699,0.27699 0.56381,0 1.12276,-0.32124 1.6092,-0.72037 0.5077,-0.41657 0.9894693,-0.95949 1.4102493,-1.4981 0.68703,-0.8794 1.19431,-1.72253 1.36478,-2.01487 h 3.55327 c 0.4424,5e-5 0.79272,-0.35859 0.79272,-0.79375 v -1.05885 c 0,-0.19959 -0.0758,-0.3894092 -0.20154,-0.5291592 0.12625,-0.141051 0.20154,-0.325651 0.20154,-0.528651 V 8.201288 c 0,-0.4439298 -0.35756,-0.7932599 -0.79272,-0.7932398 -4.28701,-2.911e-4 -9.0388983,6.35e-4 -12.7020692,1.403e-4 -0.43515,1.205e-4 -0.79271,0.3494504 -0.79271,0.7933805 z m 0.79271,-0.26407 c 1.7223109,3.99e-5 3.1391399,1e-5 4.7635399,0 v 0.7927199 c -5.55e-4,0.1461699 0.11738,0.2656099 0.26355,0.2661299 h 2.6478993 c 0.14617,-5.2e-4 0.26411,-0.11996 0.26355,-0.2661299 V 7.937499 c 1.55493,-1.01e-5 3.31912,0 4.76353,0 0.14186,-1.01e-5 0.26355,0.1129099 0.26355,0.26407 v 1.0588498 c 0,0.15114 -0.12169,0.26457 -0.26355,0.26458 -4.23402,7.67e-4 -8.4680393,3.44e-4 -12.7020692,0 -0.14185,-1e-5 -0.26355,-0.11344 -0.26355,-0.26458 V 8.201569 c 0,-0.1511601 0.12169,-0.2640801 0.26355,-0.26407 z m 5.2926999,0 c 0.71676,0 1.42049,1e-5 2.1166693,0 V 8.4666688 H 8.2020767 Z m -5.2926999,2.116669 c 1.0113099,-1.9e-4 2.0226209,6e-5 3.0339309,0 l -1.160141,0.67024 c -0.72019,0.4158 -0.83866,0.39143 -1.28002,0.38809 -0.14409,-0.16157 -0.35408,-0.26454 -0.5917,-0.26458 -0.0885,-1.3e-4 -0.17708,8e-5 -0.26562,0 v -0.52969 c 0,-0.15115 0.12169,-0.26407 0.2635501,-0.26406 z m 4.5010199,0.98702 -1.60559,0.92552 c -0.30599,0.17709 -0.0404,0.63597 0.26562,0.45889 l 0.44235,-0.25477 h 4.9263193 c -0.24158,0.3945 -0.64688,1.02718 -1.16376,1.68879 -0.4060293,0.51973 -0.8683993,1.03669 -1.3280793,1.41387 -0.4799299,0.39379 -0.91108,0.60151 -1.27331,0.60151 -1.55301,0 -2.6059499,-0.27622 -3.9692689,-0.2775 v -3.95583 c 0.3855289,0 0.642929,-0.0563 1.342039,-0.45992 l 1.8340009,-1.05679 c 0.0967,-0.0558 0.202249,-0.0782 0.303849,-0.07079 0.16934,0.0123 0.32832,0.106835 0.4191,0.264062 0.14304,0.247748 0.0646,0.574088 -0.19327,0.722958 z m 3.4375193,-0.98702 c 1.58799,-1.1e-4 3.17545,0 4.76353,0 0.14186,-1e-5 0.26355,0.11291 0.26355,0.26406 v 1.05885 c 0,0.15115 -0.12169,0.26457 -0.26355,0.26459 H 7.4269367 l 0.25011,-0.14366 c 0.16497,-0.0952 0.29456,-0.23114 0.38447,-0.38499 h 2.5228493 c 0.14632,-5.8e-4 0.26439,-0.11981 0.26355,-0.26614 z m -0.52917,5.29e-4 v 0.52863 H 8.2036267 c 3.18e-4,-0.17924 -0.0456,-0.36072 -0.14211,-0.52864 z m -8.9963492,1.322381 h 1.58905 c 0.14289,3e-5 0.26355,0.11446 0.26355,0.26562 v 3.96875 c 0,0.15116 -0.12272,0.26355 -0.26355,0.26355 h -1.58905 c -0.14083,0 -0.26355,-0.11239 -0.26355,-0.26355 v -3.96875 c 0,-0.15116 0.12066,-0.26559 0.26355,-0.26562 z"
       id="path5875"
       inkscape:connector-curvature="0"
       sodipodi:nodetypes="ccccccccccccccccccccccccccccccccccccccccccccccccccccccccccccccccccccccccccccccccccccccccccccccccccccccccccccccccccccccccccccccccccccccccccccccccccccccccccccccccccccccccccccccccc" />
  </g>
</svg>
