<?xml version="1.0" encoding="utf-8"?>
<!-- Generator: Adobe Illustrator 24.3.0, SVG Export Plug-In . SVG Version: 6.00 Build 0)  -->
<svg version="1.1" id="Layer_1" xmlns="http://www.w3.org/2000/svg" xmlns:xlink="http://www.w3.org/1999/xlink" x="0px" y="0px"
	 viewBox="0 0 64 64" enable-background="new 0 0 64 64" xml:space="preserve">
<path d="M59,28H39c-1.7,0-3,1.3-3,3v28c0,1.7,1.3,3,3,3h20c1.7,0,3-1.3,3-3V31C62,29.3,60.7,28,59,28z M39,30h20c0.6,0,1,0.4,1,1v9
	H38v-9C38,30.4,38.4,30,39,30z M50,42h10v8H50V42z M48,50H38v-8h10V50z M38,59v-7h10v8h-9C38.4,60,38,59.6,38,59z M59,60h-9v-8h10v7
	C60,59.6,59.6,60,59,60z"/>
<path d="M41,38h16c0.6,0,1-0.4,1-1v-4c0-0.6-0.4-1-1-1H41c-0.6,0-1,0.4-1,1v4C40,37.6,40.4,38,41,38z M42,34h14v2H42V34z"/>
<polygon points="40,47 42,47 42,49 44,49 44,47 46,47 46,45 44,45 44,43 42,43 42,45 40,45 "/>
<rect x="52" y="45" width="6" height="2"/>
<polygon points="45.8,54.7 44.4,53.3 43,54.7 41.6,53.3 40.2,54.7 41.6,56.1 40.2,57.5 41.6,58.9 43,57.5 44.4,58.9 45.8,57.5 
	44.4,56.1 "/>
<rect x="52" y="55" width="6" height="2"/>
<rect x="54" y="57.5" width="2" height="1"/>
<rect x="54" y="53.5" width="2" height="1"/>
<path d="M34,32c0-5.5-4.5-10-10-10s-10,4.5-10,10c0,3.3,1.6,6.2,4,8h-8c-0.6,0-1,0.4-1,1v4H7c-0.6,0-1,0.4-1,1v5c0,0.6,0.4,1,1,1h2
	v3H7c-0.6,0-1,0.4-1,1v4H4V14h8c1.1,0,2-0.9,2-2V4h28v22h2V4c0-1.1-0.9-2-2-2H13v0c-0.3,0-0.5,0.1-0.7,0.3l-10,10
	C2.1,12.5,2,12.7,2,13h0v47c0,1.1,0.9,2,2,2h30v-2h-6v-3h2c0.6,0,1-0.4,1-1v-5c0-0.6-0.4-1-1-1h-2v-3h2c0.6,0,1-0.4,1-1v-5
	c0-0.6-0.4-1-1-1h0C32.4,38.2,34,35.3,34,32z M12,5.4V12H5.4L12,5.4z M8,60v-3h18v3H8z M29,55h-2H11v-3h18V55z M10,50H8v-3h18v3H10z
	 M29,42v3h-2H11v-3H29z M16,32c0-4.4,3.6-8,8-8s8,3.6,8,8s-3.6,8-8,8S16,36.4,16,32z"/>
<path d="M25,26h-2v1.2c-1.2,0.4-2,1.5-2,2.8c0,1.7,1.3,3,3,3c0.6,0,1,0.4,1,1s-0.4,1-1,1h-3v2h2v1h2v-1.2c1.2-0.4,2-1.5,2-2.8
	c0-1.7-1.3-3-3-3c-0.6,0-1-0.4-1-1s0.4-1,1-1h3v-2h-2V26z"/>
<path d="M53,2h-4c-0.6,0-1,0.4-1,1v3h-1c-0.6,0-1,0.4-1,1v19h2V8h6v18h2V9h2v13h2V9c0-1.1-0.9-2-2-2h-2c0-0.6-0.4-1-1-1h-1V3
	C54,2.4,53.6,2,53,2z M50,4h2v2h-2V4z"/>
<rect x="17" y="10" width="17" height="2"/>
<rect x="6" y="16" width="34" height="2"/>
<rect x="6" y="20" width="12" height="2"/>
<rect x="31" y="20" width="9" height="2"/>
</svg>
