<?xml version="1.0" standalone="no"?>
<!DOCTYPE svg PUBLIC "-//W3C//DTD SVG 20010904//EN"
 "http://www.w3.org/TR/2001/REC-SVG-20010904/DTD/svg10.dtd">
<svg version="1.0" xmlns="http://www.w3.org/2000/svg"
 width="1873.000000pt" height="1873.000000pt" viewBox="0 0 1873.000000 1873.000000"
 preserveAspectRatio="xMidYMid meet">

<g transform="translate(0.000000,1873.000000) scale(0.100000,-0.100000)"
fill="#000000" stroke="none">
<path d="M5675 15869 c-786 -83 -1475 -579 -1811 -1304 -106 -228 -162 -434
-195 -710 -18 -154 -19 -325 -19 -4880 0 -4631 1 -4723 20 -4880 31 -252 73
-419 157 -625 26 -66 117 -245 145 -288 15 -24 28 -45 28 -48 0 -6 62 -94 134
-189 72 -96 283 -310 382 -388 314 -247 664 -396 1086 -463 161 -26 496 -23
663 5 393 66 717 203 1023 434 108 81 308 276 393 382 274 342 443 753 489
1187 7 64 10 1315 10 3677 l0 3581 3613 3 c2545 3 3634 7 3685 15 552 83 970
288 1337 656 203 203 343 411 480 711 59 128 123 352 156 545 15 90 21 502 9
580 -5 30 -12 82 -16 115 -12 111 -93 390 -152 525 -31 73 -116 237 -143 278
-16 24 -29 45 -29 47 0 12 -133 190 -195 260 -122 139 -216 227 -345 326 -324
247 -732 408 -1139 449 -126 12 -9644 12 -9766 -1z"/>
<path d="M12150 9504 c-435 -37 -776 -153 -1110 -375 -118 -79 -133 -90 -256
-196 -137 -119 -304 -317 -411 -488 -44 -71 -131 -235 -154 -290 -4 -11 -17
-42 -29 -70 -55 -128 -104 -311 -136 -505 -24 -145 -24 -512 0 -660 65 -409
211 -745 462 -1067 320 -410 798 -707 1306 -813 641 -133 1299 11 1823 400 57
42 196 160 240 205 47 45 192 214 220 254 17 23 45 63 63 87 17 24 32 46 32
49 0 3 19 35 42 72 44 72 148 285 148 303 0 5 4 18 10 28 14 25 57 143 63 172
3 14 14 61 26 106 44 178 60 310 61 528 0 146 -4 240 -15 310 -17 107 -51 266
-66 304 -5 13 -9 30 -9 39 0 17 -43 134 -60 165 -6 10 -10 22 -10 28 0 25
-118 256 -195 381 -31 50 -108 159 -127 180 -13 14 -36 40 -52 59 -101 123
-242 253 -398 368 -289 212 -630 350 -1005 407 -99 14 -380 26 -463 19z"/>
</g>
</svg>
