<?xml version="1.0" encoding="UTF-8"?>
<!DOCTYPE svg PUBLIC "-//W3C//DTD SVG 1.1//EN" "http://www.w3.org/Graphics/SVG/1.1/DTD/svg11.dtd">
<!-- Creator: CorelDRAW -->
<svg xmlns="http://www.w3.org/2000/svg" xml:space="preserve" width="2.33333in" height="2.33333in" version="1.1" style="shape-rendering:geometricPrecision; text-rendering:geometricPrecision; image-rendering:optimizeQuality; fill-rule:evenodd; clip-rule:evenodd"
viewBox="0 0 2333 2333"
 xmlns:xlink="http://www.w3.org/1999/xlink">
 <defs>
  <style type="text/css">
   <![CDATA[
    .fil0 {fill:black}
   ]]>
  </style>
 </defs>
 <g id="Layer_x0020_1">
  <metadata id="CorelCorpID_0Corel-Layer"/>
  <path class="fil0" d="M1808 939l-606 0c-13,0 -25,-12 -25,-25 0,-14 12,-25 25,-25l606 0c14,0 25,11 25,25 0,13 -11,25 -25,25zm-715 0l-290 0c-14,0 -25,-12 -25,-25 0,-14 11,-25 25,-25l290 0c14,0 25,11 25,25 0,13 -13,25 -25,25z"/>
  <path class="fil0" d="M1808 1113l-356 0c-14,0 -25,-11 -25,-25 0,-14 11,-23 25,-23l356 0c14,0 25,11 25,25 0,14 -11,23 -25,23zm-466 0l-539 0c-14,0 -25,-11 -25,-25 0,-14 11,-25 25,-25l539 0c14,0 25,11 25,25 0,14 -12,25 -25,25z"/>
  <path class="fil0" d="M1808 1289l-448 0c-13,0 -24,-11 -24,-25 0,-13 11,-25 24,-25l448 0c14,0 25,12 25,25 0,14 -11,25 -25,25zm-557 0l-448 0c-14,0 -25,-11 -25,-25 0,-13 11,-25 25,-25l447 0c13,0 24,12 24,25 0,14 -11,25 -23,25z"/>
  <path class="fil0" d="M1808 1466l-861 0c-14,0 -25,-12 -25,-25 0,-14 11,-25 25,-25l861 0c14,0 25,11 25,25 0,13 -11,25 -25,25z"/>
  <path class="fil0" d="M1808 1640l-650 0c-14,0 -25,-11 -25,-25 0,-14 11,-25 25,-25l650 0c14,0 25,11 25,25 0,14 -11,25 -25,25z"/>
  <path class="fil0" d="M1808 1818l-650 0c-14,0 -25,-11 -25,-25 0,-14 11,-25 25,-25l650 0c14,0 25,11 25,25 0,14 -11,25 -25,25z"/>
  <path class="fil0" d="M1910 1955l-1210 0c-59,0 -109,-48 -109,-109l0 -390c-91,-246 -181,-492 -271,-738 -19,-53 9,-110 60,-128 51,-18 108,7 128,60 27,75 55,150 83,225l0 -322c0,-60 50,-110 109,-110l174 0 0 -40c0,-14 11,-25 25,-25l93 0c13,0 25,11 25,25l0 39 219 0 0 -39c0,-14 11,-25 25,-25l91 0c14,0 25,11 25,25l0 39 221 0 0 -39c0,-14 11,-25 25,-25l91 0c14,0 25,11 25,25l0 39 171 0c59,0 109,50 109,110l0 1292c0,63 -48,111 -109,111zm-1273 -514c2,3 3,6 3,10l102 278 83 79 13 -114 -243 -663c-2,-4 -4,-8 -4,-13l-94 -258 -96 35 236 646zm4 150l0 255c0,33 27,61 61,61l1208 0c33,0 61,-28 61,-61l0 -1293c0,-33 -28,-61 -61,-61l-171 0 0 110c25,20 42,52 42,86 -2,62 -52,112 -114,112 -61,0 -111,-50 -111,-111 0,-33 15,-67 42,-86l0 -111 -221 0 0 110c25,20 42,52 42,86 -3,62 -53,112 -114,112 -61,0 -111,-50 -111,-111 0,-33 15,-67 42,-86l0 -111 -219 0 0 110c24,20 41,52 41,86 -3,62 -53,112 -114,112 -62,0 -112,-50 -112,-111 0,-33 15,-65 42,-86l0 -110 -174 0c-33,0 -61,28 -61,61l0 454c82,224 164,449 246,674 1,4 1,7 1,11l-19 168c-2,9 -7,16 -16,19 -1,2 -4,3 -6,3 -6,0 -13,-3 -17,-7l-124 -116c-2,-3 -4,-6 -5,-10l-58 -159zm-257 -841l96 -35 -18 -48c-9,-21 -28,-34 -49,-34 -5,0 -11,2 -18,3 -25,10 -39,39 -29,65l18 49zm1307 -271c-2,-4 -3,-8 -3,-12 0,-4 1,-8 3,-12l0 -27 -45 0 0 39 0 147c0,8 -4,17 -11,21 -18,11 -29,30 -29,53 0,34 28,62 62,62 35,0 63,-28 63,-62 0,-23 -11,-42 -29,-53 -7,-4 -11,-13 -11,-21l0 -135zm-408 -51l0 31c1,2 1,5 1,8 0,3 0,6 -1,8l0 139c0,8 -4,17 -11,21 -18,11 -29,30 -29,53 0,34 27,62 62,62 35,0 62,-28 62,-62 0,-23 -11,-42 -29,-53 -7,-4 -11,-13 -11,-21l0 -139c-1,-2 -1,-5 -1,-8 0,-3 0,-6 1,-8l0 -31 -44 0zm-362 0l0 32c1,3 1,5 1,8 0,3 0,6 -1,9l0 137c0,8 -4,17 -11,21 -18,11 -29,32 -29,53 0,34 29,62 63,62 35,0 63,-28 63,-62 0,-21 -11,-42 -29,-53 -7,-4 -11,-13 -11,-21l0 -139c-1,-2 -2,-5 -2,-8 0,-3 1,-6 2,-8l0 -31 -46 0z"/>
 </g>
</svg>
