<?xml version="1.0" encoding="UTF-8" standalone="no"?> <svg width="64" height="64" viewBox="0 0 64 64" fill="none" xmlns="http://www.w3.org/2000/svg">
<path d="M61.0001 50.39L55.3101 31.12C55.2377 30.8702 55.0709 30.6585 54.845 30.5297C54.6191 30.4009 54.3519 30.3651 54.1001 30.43L47.0001 32.22C46.8702 32.2535 46.7484 32.3127 46.6419 32.3942C46.5354 32.4758 46.4463 32.5779 46.3801 32.6945C46.3139 32.8111 46.2717 32.9399 46.2563 33.0731C46.2408 33.2063 46.2523 33.3413 46.2901 33.47L46.5001 34.19C44.6259 34.1338 42.7866 33.6697 41.1101 32.83C39.0201 31.83 35.3401 29.47 32.9801 29.54V6.54001C36.3511 6.47551 39.7047 6.03954 42.9801 5.24001C43.1151 5.98516 43.4441 6.6816 43.9339 7.25917C44.4237 7.83674 45.057 8.27507 45.7701 8.53001L41.0001 16.72C40.9085 16.8744 40.8602 17.0505 40.8601 17.23C40.8601 18.9778 41.5544 20.654 42.7903 21.8898C44.0261 23.1257 45.7023 23.82 47.4501 23.82C49.1979 23.82 50.8741 23.1257 52.1099 21.8898C53.3458 20.654 54.0401 18.9778 54.0401 17.23C54.04 17.0505 53.9917 16.8744 53.9001 16.72L49.0001 8.44001C49.7599 8.10379 50.4061 7.55464 50.8604 6.85897C51.3147 6.16329 51.5577 5.35089 51.5601 4.52001C51.5601 4.25479 51.4547 4.00044 51.2672 3.8129C51.0797 3.62536 50.8253 3.52001 50.5601 3.52001C50.2949 3.52001 50.0405 3.62536 49.853 3.8129C49.6655 4.00044 49.5601 4.25479 49.5601 4.52001C49.5217 5.0999 49.2643 5.64351 48.84 6.04065C48.4157 6.4378 47.8563 6.65876 47.2751 6.65876C46.6939 6.65876 46.1345 6.4378 45.7102 6.04065C45.2859 5.64351 45.0285 5.0999 44.9901 4.52001V4.00001C44.9955 3.84364 44.9641 3.68818 44.8985 3.54614C44.8329 3.4041 44.7349 3.27943 44.6124 3.18217C44.4898 3.0849 44.3461 3.01775 44.1929 2.98611C44.0397 2.95447 43.8812 2.95923 43.7301 3.00001C40.2307 3.95813 36.6273 4.48536 33.0001 4.57001V4.00001C33.0001 3.73479 32.8947 3.48044 32.7072 3.2929C32.5197 3.10536 32.2653 3.00001 32.0001 3.00001C31.7349 3.00001 31.4805 3.10536 31.293 3.2929C31.1055 3.48044 31.0001 3.73479 31.0001 4.00001V4.57001C27.393 4.4805 23.8101 3.95331 20.3301 3.00001C20.179 2.95923 20.0205 2.95447 19.8673 2.98611C19.7141 3.01775 19.5704 3.0849 19.4478 3.18217C19.3253 3.27943 19.2273 3.4041 19.1617 3.54614C19.0961 3.68818 19.0647 3.84364 19.0701 4.00001V4.52001C19.0317 5.0999 18.7743 5.64351 18.35 6.04065C17.9257 6.4378 17.3663 6.65876 16.7851 6.65876C16.2039 6.65876 15.6445 6.4378 15.2202 6.04065C14.7959 5.64351 14.5385 5.0999 14.5001 4.52001C14.5001 4.25479 14.3947 4.00044 14.2072 3.8129C14.0197 3.62536 13.7653 3.52001 13.5001 3.52001C13.2349 3.52001 12.9805 3.62536 12.793 3.8129C12.6055 4.00044 12.5001 4.25479 12.5001 4.52001C12.4924 5.37634 12.7418 6.21529 13.216 6.92837C13.6902 7.64146 14.3674 8.1959 15.1601 8.52001L10.2701 16.76C10.1785 16.9144 10.1302 17.0905 10.1301 17.27C10.1301 19.0178 10.8244 20.694 12.0603 21.9298C13.2961 23.1657 14.9723 23.86 16.7201 23.86C18.4679 23.86 20.1441 23.1657 21.3799 21.9298C22.6158 20.694 23.3101 19.0178 23.3101 17.27C23.31 17.0905 23.2617 16.9144 23.1701 16.76L18.3101 8.56001C19.0061 8.29333 19.6205 7.84951 20.0923 7.27246C20.5641 6.69541 20.877 6.00515 21.0001 5.27001C24.2755 6.06954 27.6291 6.50551 31.0001 6.57001V29.68C30.6101 29.68 27.0001 30.68 26.5701 30.84L17.2801 31.22L17.4901 30.54C17.5297 30.412 17.5432 30.2773 17.5298 30.144C17.5164 30.0107 17.4763 29.8814 17.4119 29.7639C17.3476 29.6463 17.2603 29.5429 17.1551 29.4598C17.05 29.3767 16.9293 29.3155 16.8001 29.28L9.8001 27.36C9.55484 27.2928 9.29321 27.3216 9.06843 27.4405C8.84365 27.5594 8.67261 27.7595 8.5901 28L3.0501 45.58C3.0089 45.7086 2.99418 45.8443 3.00684 45.9788C3.0195 46.1132 3.05927 46.2437 3.12375 46.3624C3.18824 46.4811 3.27609 46.5855 3.38202 46.6693C3.48795 46.7531 3.60976 46.8146 3.7401 46.85L10.7401 48.76C10.8728 48.7988 11.0122 48.8095 11.1493 48.7917C11.2864 48.7739 11.4184 48.7278 11.5368 48.6564C11.6552 48.5849 11.7575 48.4897 11.8373 48.3768C11.917 48.2638 11.9724 48.1355 12.0001 48C14.6401 51.53 17.5301 55.24 21.3501 57.6L25.3501 60.22C25.8853 60.5707 26.4951 60.7913 27.1308 60.8641C27.7665 60.937 28.4104 60.86 29.011 60.6394C29.6117 60.4187 30.1523 60.0606 30.5897 59.5936C31.0271 59.1266 31.3492 58.5638 31.5301 57.95C31.9964 58.3485 32.5531 58.6269 33.1517 58.7609C33.7503 58.8949 34.3726 58.8804 34.9643 58.7186C35.556 58.5569 36.0992 58.2529 36.5464 57.833C36.9936 57.4132 37.3313 56.8903 37.5301 56.31C38.0626 56.6606 38.6723 56.8764 39.3068 56.9388C39.9412 57.0012 40.5813 56.9083 41.1719 56.6682C41.7624 56.428 42.2857 56.0478 42.6965 55.5603C43.1074 55.0728 43.3935 54.4927 43.5301 53.87C44.018 54.1081 44.5503 54.2417 45.0928 54.2623C45.6354 54.2828 46.1762 54.1899 46.6808 53.9894C47.1853 53.7889 47.6424 53.4853 48.0229 53.0979C48.4033 52.7106 48.6987 52.2481 48.8901 51.74L51.5201 51.3C51.8201 52.12 51.8801 53.75 53.1601 53.46L60.2201 51.67C60.3596 51.6452 60.4923 51.5909 60.6093 51.5109C60.7263 51.4309 60.8249 51.3269 60.8987 51.2059C60.9725 51.0848 61.0196 50.9495 61.0371 50.8088C61.0546 50.6682 61.042 50.5254 61.0001 50.39ZM47.4401 21.82C46.4029 21.8128 45.3988 21.4538 44.5922 20.8016C43.7856 20.1494 43.2243 19.2428 43.0001 18.23H51.9301C51.7024 19.2502 51.1332 20.1622 50.3167 20.815C49.5003 21.4678 48.4854 21.8223 47.4401 21.82ZM43.6101 16.23L47.4401 9.77001L51.2701 16.23H43.6101ZM16.7201 9.77001L20.5601 16.23H12.8901L16.7201 9.77001ZM16.7201 21.82C15.6799 21.8155 14.6721 21.4579 13.8618 20.8056C13.0514 20.1534 12.4867 19.2452 12.2601 18.23H21.1901C20.9631 19.2469 20.3969 20.1563 19.5845 20.8087C18.7722 21.4612 17.762 21.8178 16.7201 21.82V21.82ZM5.2701 45.19L10.2001 29.55L15.2901 30.93C14.9201 32.12 10.7301 45.39 10.3601 46.58L5.2701 45.19ZM46.6901 51.65C46.3504 51.99 45.8998 52.1962 45.4205 52.2311C44.9412 52.266 44.4654 52.1272 44.0801 51.84L39.5501 48.25C39.4466 48.168 39.3278 48.1074 39.2008 48.0716C39.0737 48.0357 38.9408 48.0254 38.8097 48.0412C38.6786 48.057 38.5519 48.0986 38.437 48.1637C38.3221 48.2287 38.2212 48.3158 38.1401 48.42C37.9777 48.6285 37.9044 48.8928 37.9363 49.1551C37.9681 49.4174 38.1025 49.6565 38.3101 49.82L41.0001 51.92C42.9501 53.63 40.1801 55.99 38.4401 54.45L34.0001 50.59C33.8012 50.4136 33.5404 50.3235 33.275 50.3395C33.0096 50.3554 32.7615 50.4761 32.5851 50.675C32.4087 50.8739 32.3186 51.1347 32.3345 51.4001C32.3505 51.6655 32.4712 51.9136 32.6701 52.09L35.2001 54.3C35.3455 54.4202 35.4641 54.5694 35.5483 54.7382C35.6325 54.907 35.6804 55.0916 35.6889 55.28C35.6973 55.4685 35.6662 55.6566 35.5975 55.8323C35.5289 56.0079 35.4241 56.1673 35.2901 56.3C34.9771 56.6104 34.5616 56.7958 34.1215 56.8216C33.6815 56.8474 33.2472 56.7117 32.9001 56.44C32.9001 56.44 28.4101 52.68 28.3401 52.61C28.2396 52.5253 28.1235 52.4612 27.9982 52.4214C27.873 52.3816 27.7412 52.3668 27.6102 52.378C27.4793 52.3891 27.3519 52.426 27.2352 52.4864C27.1185 52.5468 27.0148 52.6295 26.9301 52.73C26.8454 52.8305 26.7813 52.9466 26.7415 53.0719C26.7017 53.1971 26.6869 53.3289 26.6981 53.4599C26.7092 53.5908 26.746 53.7182 26.8064 53.8349C26.8668 53.9516 26.9496 54.0553 27.0501 54.14L29.1501 55.9C30.7601 57.64 28.1501 59.71 26.4601 58.52L22.4601 55.89C18.5301 53.52 15.4601 49.22 12.7501 45.65L16.6601 33.25L24.7401 32.92L20.8701 38.34C18.2301 42.27 23.7701 46.1 26.9301 42.95L28.6301 41.24C29.5703 40.3452 30.7989 39.8152 32.095 39.7456C33.3911 39.6759 34.6694 40.0711 35.7001 40.86L46.4901 49.42C46.6598 49.5461 46.801 49.7066 46.9043 49.891C47.0076 50.0754 47.0708 50.2796 47.0897 50.4902C47.1086 50.7008 47.0828 50.9129 47.0139 51.1128C46.945 51.3127 46.8347 51.4958 46.6901 51.65V51.65ZM48.9601 49.65C48.7547 48.9249 48.3239 48.284 47.7301 47.82L36.9401 39.3C35.5257 38.208 33.7659 37.6607 31.9816 37.758C30.1973 37.8553 28.5074 38.5906 27.2201 39.83L25.5101 41.54C24.1501 43 21.2301 41.37 22.5101 39.54L27.3601 32.74L30.8901 31.74C32.4382 31.3271 34.0835 31.4906 35.5201 32.2L40.2601 34.6C42.3942 35.6699 44.7529 36.215 47.1401 36.19L51.0001 49.34L48.9601 49.65ZM53.6301 51.23C52.9301 48.83 49.2901 36.42 48.5401 33.87L53.6601 32.57L58.7501 50L53.6301 51.23Z" fill="black"/>
</svg>
