<?xml version="1.0" standalone="no"?>
<!DOCTYPE svg PUBLIC "-//W3C//DTD SVG 20010904//EN"
 "http://www.w3.org/TR/2001/REC-SVG-20010904/DTD/svg10.dtd">
<svg version="1.0" xmlns="http://www.w3.org/2000/svg"
 width="2480.000000pt" height="1754.000000pt" viewBox="0 0 2480.000000 1754.000000"
 preserveAspectRatio="xMidYMid meet">

<g transform="translate(0.000000,1754.000000) scale(0.100000,-0.100000)"
fill="#000000" stroke="none">
<path d="M0 8770 l0 -8770 12400 0 12400 0 0 8770 0 8770 -12400 0 -12400 0 0
-8770z m21490 7128 c215 -46 331 -84 495 -162 228 -109 376 -217 560 -408 261
-270 413 -569 503 -988 14 -68 16 -573 19 -5610 3 -4989 2 -5546 -12 -5650
-32 -228 -92 -417 -201 -630 -94 -183 -177 -294 -344 -460 -172 -172 -282
-253 -480 -354 -207 -105 -411 -167 -640 -196 -117 -14 -17828 -14 -17955 0
-300 35 -583 136 -828 296 -126 82 -178 124 -290 233 -320 310 -518 715 -566
1153 -8 68 -11 1758 -11 5562 0 6006 -5 5560 60 5811 88 342 262 639 522 891
107 104 160 147 285 228 239 157 530 262 816 295 40 5 4104 8 9032 7 8184 -2
8966 -3 9035 -18z"/>
<path d="M3470 15311 c-69 -22 -121 -65 -156 -131 -18 -33 -19 -68 -19 -606
l0 -571 30 -48 c47 -76 101 -109 186 -113 90 -5 144 15 198 73 68 74 71 95 71
531 l0 383 408 3 c362 3 410 5 438 20 117 64 167 179 133 301 -13 47 -69 111
-123 140 -41 22 -47 22 -591 24 -302 1 -561 -2 -575 -6z"/>
<path d="M17696 15138 c-22 -31 -20 -64 4 -88 41 -41 120 -12 120 45 0 59 -91
90 -124 43z"/>
<path d="M17886 15138 c-22 -31 -20 -64 4 -88 20 -20 65 -26 86 -12 37 24 39
93 4 112 -33 18 -78 12 -94 -12z"/>
<path d="M18160 15133 c-25 -32 -20 -69 12 -95 27 -23 49 -23 82 3 32 25 35
70 6 99 -29 29 -74 26 -100 -7z"/>
<path d="M20181 15141 c-37 -37 -22 -95 30 -113 27 -10 76 18 83 48 16 62 -68
110 -113 65z"/>
<path d="M20371 15141 c-12 -12 -21 -34 -21 -49 0 -72 102 -88 130 -21 11 27
11 33 -7 57 -26 35 -74 41 -102 13z"/>
<path d="M19244 15083 c-36 -65 -122 -219 -131 -235 -2 -5 6 -8 19 -8 19 0 36
24 103 147 97 178 91 163 66 163 -14 0 -30 -18 -57 -67z"/>
<path d="M19283 15008 c-63 -107 -81 -146 -77 -164 6 -24 6 -24 158 -24 172 0
199 -8 204 -56 6 -62 -2 -64 -279 -64 l-249 0 0 135 0 135 -60 0 -60 0 0 -210
c0 -197 -1 -211 -20 -230 -11 -11 -33 -20 -50 -20 l-30 0 0 -61 0 -62 46 7
c95 13 157 67 170 148 l6 37 273 3 c305 3 301 2 353 79 20 29 23 44 20 96 -3
51 -9 69 -34 100 -46 58 -84 73 -186 73 -53 0 -88 4 -88 10 0 6 18 46 40 90
l40 80 -25 10 c-14 6 -35 14 -48 19 -21 8 -28 -1 -104 -131z"/>
<path d="M19970 14900 l0 -250 29 -32 29 -33 138 -4 c154 -3 202 6 233 46 19
23 21 40 21 179 l0 154 -60 0 -60 0 0 -118 c0 -78 -4 -122 -12 -130 -8 -8 -45
-12 -100 -12 -76 0 -89 2 -98 19 -6 12 -10 103 -10 225 l0 206 -55 0 -55 0 0
-250z"/>
<path d="M20850 14900 l0 -250 29 -32 29 -33 274 0 c255 0 275 1 306 20 50 30
72 72 72 140 0 73 -31 131 -88 163 -33 18 -55 22 -131 22 -50 0 -91 2 -91 5 0
3 18 42 40 86 23 44 38 84 35 89 -7 11 -83 35 -89 29 -2 -2 -40 -64 -84 -137
-57 -96 -78 -139 -75 -157 l5 -24 165 -3 c159 -3 165 -4 184 -27 24 -30 24
-46 -1 -71 -19 -19 -33 -20 -235 -20 -202 0 -215 1 -225 19 -6 12 -10 103 -10
225 l0 206 -55 0 -55 0 0 -250z"/>
<path d="M16343 15006 c3 -7 15 -46 27 -85 l21 -72 47 3 46 3 23 75 c13 41 23
78 23 83 0 4 -13 7 -30 7 -26 0 -31 -5 -41 -42 -18 -63 -24 -64 -38 -8 -12 48
-14 50 -48 50 -26 0 -34 -4 -30 -14z"/>
<path d="M16865 14981 c-46 -21 -79 -54 -94 -94 -6 -16 -11 -88 -11 -160 0
-109 -3 -138 -18 -166 -26 -48 -76 -74 -130 -67 -89 12 -122 64 -122 196 l0
80 -55 0 -55 0 0 -109 c0 -100 2 -113 28 -162 86 -166 343 -165 436 1 30 53
31 60 34 200 5 166 10 180 74 180 l38 0 0 -151 0 -151 183 4 c163 3 186 5 217
24 l36 21 28 -21 c25 -19 41 -21 169 -21 124 0 146 3 176 20 l35 20 45 -22
c39 -20 59 -23 173 -23 218 0 228 10 228 227 l0 153 -60 0 -60 0 0 -118 c0
-78 -4 -122 -12 -130 -8 -8 -48 -12 -113 -12 -138 0 -141 3 -137 151 l3 109
-59 0 -60 0 -4 -116 c-4 -146 -2 -144 -150 -144 -146 0 -148 2 -148 150 l0
110 -60 0 -60 0 0 -114 c0 -146 0 -146 -147 -146 l-103 0 0 150 0 150 -102 0
c-79 0 -112 -5 -143 -19z"/>
<path d="M18485 14986 c-37 -17 -80 -62 -94 -99 -6 -16 -11 -60 -11 -98 0
-126 54 -190 167 -197 34 -3 74 -2 87 2 37 9 87 56 107 101 33 72 19 195 -28
247 -48 53 -159 75 -228 44z m139 -128 c19 -27 21 -107 4 -131 -22 -28 -69
-32 -101 -7 -23 18 -27 29 -27 72 0 65 19 88 71 88 28 0 42 -6 53 -22z"/>
<path d="M20620 14761 l0 -210 -26 -20 c-15 -12 -37 -21 -50 -21 -23 0 -24 -4
-24 -61 l0 -62 46 7 c72 9 120 42 149 100 24 49 25 56 25 263 l0 213 -60 0
-60 0 0 -209z"/>
<path d="M10047 14936 c-82 -30 -121 -96 -121 -202 1 -83 28 -144 81 -180 58
-39 149 -39 209 1 52 34 86 125 46 125 -11 0 -23 -13 -31 -35 -34 -96 -164
-112 -228 -28 -23 30 -28 48 -31 107 -5 119 44 181 143 181 43 0 59 -5 80 -25
15 -14 31 -35 36 -47 9 -25 49 -32 49 -9 0 23 -44 79 -76 98 -43 25 -111 31
-157 14z"/>
<path d="M11745 14935 c-44 -16 -74 -49 -75 -82 0 -20 5 -23 35 -23 24 0 35 5
35 14 0 8 10 22 22 30 49 34 118 8 118 -44 0 -34 -31 -60 -72 -60 -23 0 -28
-4 -28 -25 0 -21 5 -25 29 -25 36 0 81 -35 81 -64 0 -81 -121 -100 -158 -23
-10 20 -20 27 -43 27 -34 0 -39 -23 -14 -70 40 -78 201 -89 260 -18 37 44 35
109 -4 149 l-30 29 25 25 c18 18 24 35 24 66 0 85 -100 131 -205 94z"/>
<path d="M12095 14935 c-44 -16 -74 -49 -75 -82 0 -20 5 -23 35 -23 24 0 35 5
35 14 0 8 10 22 22 30 49 34 118 8 118 -44 0 -34 -31 -60 -72 -60 -23 0 -28
-4 -28 -25 0 -21 5 -25 29 -25 36 0 81 -35 81 -64 0 -81 -121 -100 -158 -23
-10 20 -20 27 -43 27 -34 0 -39 -23 -14 -70 40 -78 201 -89 260 -18 37 44 35
109 -4 149 l-30 29 25 25 c18 18 24 35 24 66 0 85 -100 131 -205 94z"/>
<path d="M12723 14940 c-40 -13 -79 -60 -94 -113 -17 -64 -7 -201 17 -234 37
-49 69 -66 126 -66 96 -1 150 45 151 131 1 62 -25 107 -75 127 -51 20 -76 19
-123 -5 -22 -11 -41 -20 -42 -20 -5 0 7 51 19 83 13 34 36 47 82 47 25 0 40
-7 54 -25 14 -17 30 -25 51 -25 36 0 36 1 17 39 -29 55 -111 82 -183 61z m108
-219 c34 -27 32 -86 -5 -117 -60 -53 -133 -8 -127 79 3 51 86 75 132 38z"/>
<path d="M8720 14735 c0 -198 1 -205 20 -205 18 0 20 7 20 80 l0 80 80 0 c47
0 95 6 115 14 87 37 87 185 0 222 -22 9 -71 14 -135 14 l-100 0 0 -205z m213
156 c30 -12 51 -60 42 -100 -10 -48 -38 -61 -132 -61 l-83 0 0 85 0 85 74 0
c41 0 86 -4 99 -9z"/>
<path d="M10890 14865 l0 -75 -32 20 c-18 11 -50 20 -71 20 -84 0 -131 -54
-131 -150 0 -98 47 -150 137 -150 30 0 53 7 71 21 l26 20 0 -20 c0 -14 6 -21
20 -21 19 0 20 7 20 205 0 198 -1 205 -20 205 -18 0 -20 -7 -20 -75z m-61 -76
c38 -14 61 -54 61 -109 0 -80 -52 -130 -119 -115 -93 20 -98 189 -7 225 28 12
28 12 65 -1z"/>
<path d="M11530 14927 c0 -21 -43 -56 -78 -63 -25 -5 -32 -12 -32 -30 0 -22 4
-24 50 -24 l50 0 0 -140 0 -140 35 0 35 0 0 205 0 205 -30 0 c-18 0 -30 -5
-30 -13z"/>
<path d="M12330 14910 l0 -29 99 -3 100 -3 -39 -57 c-48 -72 -79 -153 -87
-229 l-6 -59 35 0 36 0 7 58 c11 90 43 174 91 238 27 36 44 69 44 86 l0 28
-140 0 -140 0 0 -30z"/>
<path d="M9668 14868 c-2 -36 -7 -44 -25 -46 -32 -5 -30 -32 2 -32 l25 0 0
-114 c0 -107 1 -116 22 -130 28 -20 78 -21 78 -2 0 8 -13 19 -30 25 l-30 10 0
105 0 106 30 0 c39 0 41 27 3 32 -25 3 -28 7 -31 46 -3 33 -7 42 -22 42 -15 0
-19 -9 -22 -42z"/>
<path d="M9124 14821 c-34 -15 -72 -67 -79 -110 -7 -41 7 -105 28 -131 40 -51
131 -67 187 -34 76 46 88 181 21 247 -24 25 -39 31 -83 34 -29 1 -62 -1 -74
-6z m95 -32 c81 -28 83 -185 2 -219 -70 -29 -131 18 -131 101 0 62 17 99 55
115 37 16 35 16 74 3z"/>
<path d="M9406 14809 c-20 -16 -26 -29 -26 -59 0 -47 30 -75 93 -85 57 -9 87
-30 87 -60 0 -29 -26 -45 -74 -45 -35 0 -76 27 -76 50 0 6 -9 10 -20 10 -38 0
-19 -54 27 -78 37 -20 127 -15 157 9 45 36 32 117 -22 133 -9 3 -37 10 -62 16
-56 15 -70 26 -70 56 0 52 109 58 132 8 12 -27 48 -33 48 -8 0 8 -13 29 -29
45 -25 25 -37 29 -84 29 -40 0 -61 -6 -81 -21z"/>
<path d="M10404 14821 c-34 -15 -72 -67 -79 -110 -7 -41 7 -105 28 -131 40
-51 131 -67 187 -34 76 46 88 181 21 247 -24 25 -39 31 -83 34 -29 1 -62 -1
-74 -6z m95 -32 c81 -28 83 -185 2 -219 -70 -29 -131 18 -131 101 0 62 17 99
55 115 37 16 35 16 74 3z"/>
<path d="M11062 14818 c-87 -43 -89 -228 -2 -273 62 -32 155 -12 178 40 15 33
15 35 -3 35 -9 0 -27 -12 -39 -27 -34 -39 -98 -39 -132 0 -13 16 -24 39 -24
53 0 24 0 24 110 24 l110 0 0 25 c0 39 -25 89 -55 113 -31 24 -103 29 -143 10z
m124 -51 c12 -12 25 -32 29 -44 6 -23 5 -23 -84 -23 -81 0 -91 2 -91 18 0 24
28 62 54 72 29 13 67 3 92 -23z"/>
<path d="M4120 14614 c-46 -20 -97 -69 -122 -119 -31 -60 -29 -160 5 -217 35
-59 74 -94 126 -113 166 -58 331 56 331 228 0 99 -71 199 -159 226 -53 15
-139 13 -181 -5z"/>
<path d="M17260 14480 c-40 -40 -12 -120 43 -120 41 0 67 27 67 70 0 29 -6 43
-22 54 -31 22 -64 20 -88 -4z"/>
<path d="M17452 14484 c-29 -20 -30 -76 -2 -104 41 -41 110 -10 110 50 0 58
-60 88 -108 54z"/>
<path d="M10796 13575 c-8 -22 -8 -21 10 -39 21 -22 56 -3 52 27 -4 28 -52 37
-62 12z"/>
<path d="M21086 13575 c-8 -22 -8 -21 10 -39 21 -22 56 -3 52 27 -4 28 -52 37
-62 12z"/>
<path d="M9570 13529 c-9 -15 -8 -24 1 -35 18 -22 53 -13 57 15 6 40 -39 56
-58 20z"/>
<path d="M10752 13501 c-21 -13 -11 -55 15 -59 30 -4 49 31 27 52 -18 18 -24
19 -42 7z"/>
<path d="M10862 13501 c-8 -4 -12 -19 -10 -32 2 -18 9 -24 28 -24 19 0 26 6
28 24 3 20 -11 41 -28 41 -3 0 -11 -4 -18 -9z"/>
<path d="M21042 13501 c-21 -13 -11 -55 15 -59 30 -4 49 31 27 52 -18 18 -24
19 -42 7z"/>
<path d="M21152 13501 c-8 -4 -12 -19 -10 -32 2 -18 9 -24 28 -24 19 0 26 6
28 24 3 20 -11 41 -28 41 -3 0 -11 -4 -18 -9z"/>
<path d="M9220 13291 c0 -169 2 -201 16 -212 25 -21 127 -24 164 -5 29 14 35
14 53 1 27 -19 94 -19 128 -1 22 11 30 11 50 0 31 -17 97 -17 128 0 20 11 28
11 53 -2 40 -19 170 -12 196 11 17 15 19 15 35 -1 13 -13 39 -18 102 -21 79
-3 85 -2 109 23 25 24 26 30 26 146 l0 120 -30 0 -29 0 -3 -112 -3 -113 -70
-3 c-91 -4 -95 2 -95 130 0 98 0 98 -25 98 -25 0 -25 0 -25 -93 0 -127 -8
-137 -104 -137 -43 0 -77 5 -84 12 -8 8 -12 49 -12 120 l0 108 -25 0 -25 0 0
-101 c0 -125 -6 -139 -65 -139 -57 0 -65 15 -65 114 0 74 -1 76 -25 76 -25 0
-25 -1 -25 -83 0 -94 -7 -107 -60 -107 -53 0 -60 13 -60 107 0 81 -1 83 -24
83 -23 0 -24 -3 -28 -86 -5 -98 -11 -105 -78 -102 l-45 3 -3 183 -2 182 -25 0
-25 0 0 -199z"/>
<path d="M11050 13291 c0 -172 2 -200 17 -212 10 -9 48 -15 99 -18 78 -3 84
-1 108 23 25 24 26 30 26 146 l0 120 -30 0 -29 0 -3 -112 -3 -113 -65 0 -65 0
-3 183 -2 182 -25 0 -25 0 0 -199z"/>
<path d="M19668 13380 c-32 -60 -58 -111 -58 -113 0 -3 52 -7 116 -9 113 -3
116 -4 140 -31 17 -19 24 -40 24 -68 l0 -39 -190 0 -190 0 0 120 0 120 -25 0
-25 0 0 -168 c0 -155 -2 -170 -20 -190 -12 -13 -33 -22 -50 -22 -27 0 -30 -3
-30 -30 0 -26 4 -30 26 -30 63 0 124 56 124 114 l0 26 295 0 296 0 24 25 c24
23 25 30 25 145 l0 120 -30 0 -29 0 -3 -112 -3 -113 -72 -3 -73 -3 0 54 c0 96
-52 137 -175 137 -41 0 -75 2 -75 5 0 3 21 43 46 90 l46 85 -29 0 c-26 0 -33
-10 -85 -110z"/>
<path d="M21330 13291 c0 -172 2 -200 17 -212 10 -9 49 -15 104 -17 83 -4 89
-3 113 22 25 24 26 30 26 146 l0 120 -30 0 -29 0 -3 -112 -3 -113 -70 0 -70 0
-3 183 -2 182 -25 0 -25 0 0 -199z"/>
<path d="M10215 13450 c-7 -23 10 -50 30 -50 20 0 37 27 30 50 -4 13 -15 20
-30 20 -15 0 -26 -7 -30 -20z"/>
<path d="M11235 13450 c-7 -23 10 -50 30 -50 20 0 37 27 30 50 -4 13 -15 20
-30 20 -15 0 -26 -7 -30 -20z"/>
<path d="M21525 13450 c-7 -23 10 -50 30 -50 20 0 37 27 30 50 -4 13 -15 20
-30 20 -15 0 -26 -7 -30 -20z"/>
<path d="M9517 13453 c-14 -13 -7 -43 12 -53 23 -12 56 14 47 37 -3 8 -6 17
-6 19 0 7 -46 5 -53 -3z"/>
<path d="M9627 13453 c-14 -13 -7 -43 12 -53 23 -12 56 14 47 37 -3 8 -6 17
-6 19 0 7 -46 5 -53 -3z"/>
<path d="M8897 13403 c-12 -11 -8 -40 7 -52 28 -23 68 17 45 45 -12 15 -41 19
-52 7z"/>
<path d="M20313 13373 c3 -5 12 -34 21 -65 22 -78 47 -80 72 -5 9 28 19 58 22
65 2 6 -3 12 -11 12 -9 0 -21 -18 -30 -42 -10 -28 -17 -38 -21 -28 -3 8 -10
27 -15 43 -6 15 -18 27 -26 27 -9 0 -14 -3 -12 -7z"/>
<path d="M10394 13336 c-33 -33 -34 -36 -34 -114 0 -66 4 -84 22 -107 28 -36
76 -55 136 -55 47 0 49 -1 45 -24 -9 -44 -39 -61 -104 -60 -55 1 -59 -1 -59
-21 0 -35 66 -46 143 -24 43 11 77 56 77 100 l0 27 128 4 c138 4 168 14 190
64 18 39 15 160 -4 190 -52 78 -190 71 -229 -12 -20 -42 -20 -133 1 -162 15
-22 15 -22 -35 -22 l-51 0 0 75 c0 125 -40 175 -140 175 -46 0 -56 -4 -86 -34z
m139 -30 c23 -18 37 -68 37 -133 l0 -53 -59 0 c-52 0 -62 3 -80 26 -31 39 -29
117 4 149 27 28 70 32 98 11z m342 -11 c34 -33 36 -117 3 -152 -42 -44 -120
-22 -133 38 -23 104 64 181 130 114z"/>
<path d="M19124 13336 l-34 -34 -1 -118 c0 -66 -5 -134 -12 -153 -23 -67 -104
-98 -171 -66 -52 25 -66 59 -66 155 l0 80 -31 0 -32 0 5 -88 c5 -92 19 -131
60 -169 74 -69 216 -51 270 35 20 33 23 52 26 170 4 128 5 133 29 152 14 11
41 20 59 20 l34 0 0 -130 0 -130 25 0 25 0 0 155 0 155 -76 0 c-73 0 -77 -1
-110 -34z"/>
<path d="M20684 13336 l-34 -34 -1 -118 c0 -66 -5 -134 -12 -153 -23 -67 -104
-98 -171 -66 -51 24 -66 59 -66 150 l0 75 -31 0 -32 0 5 -84 c4 -61 12 -95 28
-124 61 -108 236 -111 301 -5 21 34 24 52 27 171 4 128 5 133 29 152 14 11 41
20 59 20 l34 0 0 -131 0 -131 173 4 c187 3 211 10 235 64 18 39 15 160 -4 190
-52 78 -190 71 -229 -12 -20 -42 -20 -133 1 -162 l15 -22 -70 0 -71 0 0 125 0
125 -76 0 c-73 0 -77 -1 -110 -34z m481 -41 c34 -33 36 -117 3 -152 -42 -44
-120 -22 -133 38 -23 104 64 181 130 114z"/>
<path d="M9069 13191 c-4 -179 -11 -199 -82 -234 -47 -24 -104 -10 -141 34
-23 28 -26 39 -26 115 l0 84 -31 0 -32 0 5 -88 c7 -125 40 -177 128 -203 89
-27 197 27 220 109 5 21 10 106 10 190 l0 152 -24 0 -24 0 -3 -159z"/>
<path d="M3252 13088 c2 -15 10 -23 23 -23 13 0 21 8 23 23 3 18 -1 22 -23 22
-22 0 -26 -4 -23 -22z"/>
<path d="M3412 13088 c2 -15 10 -23 23 -23 13 0 21 8 23 23 3 18 -1 22 -23 22
-22 0 -26 -4 -23 -22z"/>
<path d="M3582 13088 c2 -15 10 -23 23 -23 13 0 21 8 23 23 3 18 -1 22 -23 22
-22 0 -26 -4 -23 -22z"/>
<path d="M3752 13088 c2 -15 10 -23 23 -23 13 0 21 8 23 23 3 18 -1 22 -23 22
-22 0 -26 -4 -23 -22z"/>
<path d="M3922 13088 c2 -15 10 -23 23 -23 13 0 21 8 23 23 3 18 -1 22 -23 22
-22 0 -26 -4 -23 -22z"/>
<path d="M4092 13088 c2 -15 10 -23 23 -23 13 0 21 8 23 23 3 18 -1 22 -23 22
-22 0 -26 -4 -23 -22z"/>
<path d="M4252 13088 c2 -15 10 -23 23 -23 13 0 21 8 23 23 3 18 -1 22 -23 22
-22 0 -26 -4 -23 -22z"/>
<path d="M4422 13088 c2 -15 10 -23 23 -23 13 0 21 8 23 23 3 18 -1 22 -23 22
-22 0 -26 -4 -23 -22z"/>
<path d="M4592 13088 c2 -15 10 -23 23 -23 13 0 21 8 23 23 3 18 -1 22 -23 22
-22 0 -26 -4 -23 -22z"/>
<path d="M4762 13088 c2 -15 10 -23 23 -23 13 0 21 8 23 23 3 18 -1 22 -23 22
-22 0 -26 -4 -23 -22z"/>
<path d="M4932 13088 c2 -15 10 -23 23 -23 13 0 21 8 23 23 3 18 -1 22 -23 22
-22 0 -26 -4 -23 -22z"/>
<path d="M5092 13088 c2 -15 10 -23 23 -23 13 0 21 8 23 23 3 18 -1 22 -23 22
-22 0 -26 -4 -23 -22z"/>
<path d="M5262 13088 c2 -15 10 -23 23 -23 13 0 21 8 23 23 3 18 -1 22 -23 22
-22 0 -26 -4 -23 -22z"/>
<path d="M5432 13088 c2 -15 10 -23 23 -23 13 0 21 8 23 23 3 18 -1 22 -23 22
-22 0 -26 -4 -23 -22z"/>
<path d="M5602 13088 c2 -15 10 -23 23 -23 13 0 21 8 23 23 3 18 -1 22 -23 22
-22 0 -26 -4 -23 -22z"/>
<path d="M5772 13088 c2 -15 10 -23 23 -23 13 0 21 8 23 23 3 18 -1 22 -23 22
-22 0 -26 -4 -23 -22z"/>
<path d="M5942 13088 c2 -15 10 -23 23 -23 13 0 21 8 23 23 3 18 -1 22 -23 22
-22 0 -26 -4 -23 -22z"/>
<path d="M6102 13088 c2 -15 10 -23 23 -23 13 0 21 8 23 23 3 18 -1 22 -23 22
-22 0 -26 -4 -23 -22z"/>
<path d="M6272 13088 c2 -15 10 -23 23 -23 13 0 21 8 23 23 3 18 -1 22 -23 22
-22 0 -26 -4 -23 -22z"/>
<path d="M6442 13088 c2 -15 10 -23 23 -23 13 0 21 8 23 23 3 18 -1 22 -23 22
-22 0 -26 -4 -23 -22z"/>
<path d="M6612 13088 c2 -15 10 -23 23 -23 13 0 21 8 23 23 3 18 -1 22 -23 22
-22 0 -26 -4 -23 -22z"/>
<path d="M6782 13088 c2 -15 10 -23 23 -23 13 0 21 8 23 23 3 18 -1 22 -23 22
-22 0 -26 -4 -23 -22z"/>
<path d="M6942 13088 c2 -15 10 -23 23 -23 13 0 21 8 23 23 3 18 -1 22 -23 22
-22 0 -26 -4 -23 -22z"/>
<path d="M7112 13088 c2 -15 10 -23 23 -23 13 0 21 8 23 23 3 18 -1 22 -23 22
-22 0 -26 -4 -23 -22z"/>
<path d="M7282 13088 c2 -15 10 -23 23 -23 13 0 21 8 23 23 3 18 -1 22 -23 22
-22 0 -26 -4 -23 -22z"/>
<path d="M7452 13088 c2 -15 10 -23 23 -23 13 0 21 8 23 23 3 18 -1 22 -23 22
-22 0 -26 -4 -23 -22z"/>
<path d="M7622 13088 c2 -15 10 -23 23 -23 13 0 21 8 23 23 3 18 -1 22 -23 22
-22 0 -26 -4 -23 -22z"/>
<path d="M7782 13088 c2 -15 10 -23 23 -23 13 0 21 8 23 23 3 18 -1 22 -23 22
-22 0 -26 -4 -23 -22z"/>
<path d="M7952 13088 c2 -15 10 -23 23 -23 13 0 21 8 23 23 3 18 -1 22 -23 22
-22 0 -26 -4 -23 -22z"/>
<path d="M8122 13088 c2 -15 10 -23 23 -23 13 0 21 8 23 23 3 18 -1 22 -23 22
-22 0 -26 -4 -23 -22z"/>
<path d="M8292 13088 c2 -15 10 -23 23 -23 13 0 21 8 23 23 3 18 -1 22 -23 22
-22 0 -26 -4 -23 -22z"/>
<path d="M8462 13088 c2 -15 10 -23 23 -23 13 0 21 8 23 23 3 18 -1 22 -23 22
-22 0 -26 -4 -23 -22z"/>
<path d="M8632 13088 c2 -15 10 -23 23 -23 13 0 21 8 23 23 3 18 -1 22 -23 22
-22 0 -26 -4 -23 -22z"/>
<path d="M11752 13088 c2 -15 10 -23 23 -23 13 0 21 8 23 23 3 18 -1 22 -23
22 -22 0 -26 -4 -23 -22z"/>
<path d="M11922 13088 c2 -15 10 -23 23 -23 13 0 21 8 23 23 3 18 -1 22 -23
22 -22 0 -26 -4 -23 -22z"/>
<path d="M12092 13088 c2 -15 10 -23 23 -23 13 0 21 8 23 23 3 18 -1 22 -23
22 -22 0 -26 -4 -23 -22z"/>
<path d="M12262 13088 c2 -15 10 -23 23 -23 13 0 21 8 23 23 3 18 -1 22 -23
22 -22 0 -26 -4 -23 -22z"/>
<path d="M12422 13088 c2 -15 10 -23 23 -23 13 0 21 8 23 23 3 18 -1 22 -23
22 -22 0 -26 -4 -23 -22z"/>
<path d="M12592 13088 c2 -15 10 -23 23 -23 13 0 21 8 23 23 3 18 -1 22 -23
22 -22 0 -26 -4 -23 -22z"/>
<path d="M12762 13088 c2 -15 10 -23 23 -23 13 0 21 8 23 23 3 18 -1 22 -23
22 -22 0 -26 -4 -23 -22z"/>
<path d="M12932 13088 c2 -15 10 -23 23 -23 13 0 21 8 23 23 3 18 -1 22 -23
22 -22 0 -26 -4 -23 -22z"/>
<path d="M13102 13088 c2 -15 10 -23 23 -23 13 0 21 8 23 23 3 18 -1 22 -23
22 -22 0 -26 -4 -23 -22z"/>
<path d="M13262 13088 c2 -15 10 -23 23 -23 13 0 21 8 23 23 3 18 -1 22 -23
22 -22 0 -26 -4 -23 -22z"/>
<path d="M13432 13088 c2 -15 10 -23 23 -23 13 0 21 8 23 23 3 18 -1 22 -23
22 -22 0 -26 -4 -23 -22z"/>
<path d="M13602 13088 c2 -15 10 -23 23 -23 13 0 21 8 23 23 3 18 -1 22 -23
22 -22 0 -26 -4 -23 -22z"/>
<path d="M13772 13088 c2 -15 10 -23 23 -23 13 0 21 8 23 23 3 18 -1 22 -23
22 -22 0 -26 -4 -23 -22z"/>
<path d="M13942 13088 c2 -15 10 -23 23 -23 13 0 21 8 23 23 3 18 -1 22 -23
22 -22 0 -26 -4 -23 -22z"/>
<path d="M14112 13088 c2 -15 10 -23 23 -23 13 0 21 8 23 23 3 18 -1 22 -23
22 -22 0 -26 -4 -23 -22z"/>
<path d="M14272 13088 c2 -15 10 -23 23 -23 13 0 21 8 23 23 3 18 -1 22 -23
22 -22 0 -26 -4 -23 -22z"/>
<path d="M14442 13088 c2 -15 10 -23 23 -23 13 0 21 8 23 23 3 18 -1 22 -23
22 -22 0 -26 -4 -23 -22z"/>
<path d="M14612 13088 c2 -15 10 -23 23 -23 13 0 21 8 23 23 3 18 -1 22 -23
22 -22 0 -26 -4 -23 -22z"/>
<path d="M14782 13088 c2 -15 10 -23 23 -23 13 0 21 8 23 23 3 18 -1 22 -23
22 -22 0 -26 -4 -23 -22z"/>
<path d="M14952 13088 c2 -15 10 -23 23 -23 13 0 21 8 23 23 3 18 -1 22 -23
22 -22 0 -26 -4 -23 -22z"/>
<path d="M15112 13088 c2 -15 10 -23 23 -23 13 0 21 8 23 23 3 18 -1 22 -23
22 -22 0 -26 -4 -23 -22z"/>
<path d="M15282 13088 c2 -15 10 -23 23 -23 13 0 21 8 23 23 3 18 -1 22 -23
22 -22 0 -26 -4 -23 -22z"/>
<path d="M15452 13088 c2 -15 10 -23 23 -23 13 0 21 8 23 23 3 18 -1 22 -23
22 -22 0 -26 -4 -23 -22z"/>
<path d="M15622 13088 c2 -15 10 -23 23 -23 13 0 21 8 23 23 3 18 -1 22 -23
22 -22 0 -26 -4 -23 -22z"/>
<path d="M15792 13088 c2 -15 10 -23 23 -23 13 0 21 8 23 23 3 18 -1 22 -23
22 -22 0 -26 -4 -23 -22z"/>
<path d="M15952 13088 c2 -15 10 -23 23 -23 13 0 21 8 23 23 3 18 -1 22 -23
22 -22 0 -26 -4 -23 -22z"/>
<path d="M16122 13088 c2 -15 10 -23 23 -23 13 0 21 8 23 23 3 18 -1 22 -23
22 -22 0 -26 -4 -23 -22z"/>
<path d="M16292 13088 c2 -15 10 -23 23 -23 13 0 21 8 23 23 3 18 -1 22 -23
22 -22 0 -26 -4 -23 -22z"/>
<path d="M16462 13088 c2 -15 10 -23 23 -23 13 0 21 8 23 23 3 18 -1 22 -23
22 -22 0 -26 -4 -23 -22z"/>
<path d="M16632 13088 c2 -15 10 -23 23 -23 13 0 21 8 23 23 3 18 -1 22 -23
22 -22 0 -26 -4 -23 -22z"/>
<path d="M16802 13088 c2 -15 10 -23 23 -23 13 0 21 8 23 23 3 18 -1 22 -23
22 -22 0 -26 -4 -23 -22z"/>
<path d="M16962 13088 c2 -15 10 -23 23 -23 13 0 21 8 23 23 3 18 -1 22 -23
22 -22 0 -26 -4 -23 -22z"/>
<path d="M17132 13088 c2 -15 10 -23 23 -23 13 0 21 8 23 23 3 18 -1 22 -23
22 -22 0 -26 -4 -23 -22z"/>
<path d="M17302 13088 c2 -15 10 -23 23 -23 13 0 21 8 23 23 3 18 -1 22 -23
22 -22 0 -26 -4 -23 -22z"/>
<path d="M17472 13088 c2 -15 10 -23 23 -23 13 0 21 8 23 23 3 18 -1 22 -23
22 -22 0 -26 -4 -23 -22z"/>
<path d="M17642 13088 c2 -15 10 -23 23 -23 13 0 21 8 23 23 3 18 -1 22 -23
22 -22 0 -26 -4 -23 -22z"/>
<path d="M17802 13088 c2 -15 10 -23 23 -23 13 0 21 8 23 23 3 18 -1 22 -23
22 -22 0 -26 -4 -23 -22z"/>
<path d="M17972 13088 c2 -15 10 -23 23 -23 13 0 21 8 23 23 3 18 -1 22 -23
22 -22 0 -26 -4 -23 -22z"/>
<path d="M18142 13088 c2 -15 10 -23 23 -23 13 0 21 8 23 23 3 18 -1 22 -23
22 -22 0 -26 -4 -23 -22z"/>
<path d="M18312 13088 c2 -15 10 -23 23 -23 13 0 21 8 23 23 3 18 -1 22 -23
22 -22 0 -26 -4 -23 -22z"/>
<path d="M18482 13088 c2 -15 10 -23 23 -23 13 0 21 8 23 23 3 18 -1 22 -23
22 -22 0 -26 -4 -23 -22z"/>
<path d="M18642 13088 c2 -15 10 -23 23 -23 13 0 21 8 23 23 3 18 -1 22 -23
22 -22 0 -26 -4 -23 -22z"/>
<path d="M9932 12988 c-16 -16 -15 -33 3 -48 21 -18 55 -3 55 25 0 32 -35 46
-58 23z"/>
<path d="M10044 12986 c-11 -29 0 -51 26 -51 21 0 25 5 25 30 0 24 -5 31 -23
33 -13 2 -24 -3 -28 -12z"/>
<path d="M20072 12981 c-8 -4 -12 -19 -10 -32 2 -18 9 -24 28 -24 19 0 26 6
28 24 3 20 -11 41 -28 41 -3 0 -11 -4 -18 -9z"/>
<path d="M19380 12823 c11 -38 24 -59 35 -61 24 -5 31 5 49 66 14 49 14 53 -1
50 -9 -2 -21 -21 -28 -43 l-12 -40 -12 28 c-6 16 -11 35 -11 43 0 8 -9 14 -19
14 -18 0 -18 -2 -1 -57z"/>
<path d="M21480 12406 c-27 -33 18 -72 48 -42 13 13 14 20 6 34 -15 23 -38 26
-54 8z"/>
<path d="M19384 12325 c-10 -25 4 -45 30 -45 25 0 39 20 30 45 -4 8 -17 15
-30 15 -14 0 -27 -7 -30 -15z"/>
<path d="M9057 12308 c-31 -50 -107 -191 -107 -198 0 -5 54 -10 119 -12 100
-2 122 -6 140 -22 25 -23 27 -63 5 -94 -15 -21 -21 -22 -190 -22 l-174 0 0
120 0 120 -25 0 -25 0 0 -168 c0 -155 -2 -170 -20 -190 -12 -13 -33 -22 -50
-22 -27 0 -30 -3 -30 -30 0 -26 4 -30 26 -30 63 0 124 56 124 114 l0 26 165 0
c183 0 220 8 252 56 21 33 21 89 0 131 -23 44 -71 63 -161 63 l-76 0 41 81
c32 64 38 84 27 90 -20 13 -26 11 -41 -13z"/>
<path d="M10290 12115 l0 -215 25 0 25 0 0 215 0 215 -25 0 -25 0 0 -215z"/>
<path d="M20020 12157 c0 -121 -4 -177 -12 -185 -7 -7 -31 -12 -54 -12 -64 0
-74 21 -74 147 l0 103 -85 0 c-101 0 -135 -14 -159 -64 -35 -75 -12 -192 45
-221 41 -21 112 -19 140 4 24 19 24 19 46 -1 30 -28 99 -34 147 -14 33 14 41
14 66 1 40 -21 178 -20 208 1 21 14 22 22 22 145 l0 129 -25 0 c-24 0 -24 0
-27 -112 l-3 -113 -73 -3 c-46 -2 -79 2 -88 9 -11 9 -14 48 -14 185 l0 174
-30 0 -30 0 0 -173z m-190 -76 c0 -74 -2 -81 -26 -100 -29 -23 -64 -27 -94
-11 -25 13 -43 74 -35 116 10 55 36 74 100 74 l55 0 0 -79z"/>
<path d="M20550 12115 l0 -215 25 0 25 0 0 215 0 215 -25 0 -25 0 0 -215z"/>
<path d="M20890 12131 c0 -234 -4 -226 105 -226 57 0 77 4 93 18 19 17 22 17
51 3 36 -19 107 -20 139 -2 42 23 62 65 62 134 0 108 -41 152 -141 152 -45 0
-55 -4 -85 -34 -32 -32 -34 -38 -34 -103 0 -95 -15 -115 -83 -111 l-52 3 -3
183 -2 182 -25 0 -25 0 0 -199z m369 12 c24 -20 37 -78 27 -118 -16 -62 -79
-84 -130 -44 -22 18 -26 28 -26 75 0 45 4 59 25 79 29 30 73 33 104 8z"/>
<path d="M21424 12316 c-10 -26 4 -46 31 -46 23 0 26 4 23 28 -3 31 -44 45
-54 18z"/>
<path d="M21537 12324 c-4 -4 -7 -18 -7 -31 0 -21 4 -24 28 -21 21 2 27 8 27
28 0 18 -6 26 -20 28 -12 2 -24 0 -28 -4z"/>
<path d="M8340 12305 c-18 -21 -3 -55 25 -55 15 0 26 7 30 20 7 23 -10 50 -30
50 -7 0 -18 -7 -25 -15z"/>
<path d="M18805 12290 c-7 -23 10 -50 30 -50 20 0 37 27 30 50 -4 13 -15 20
-30 20 -15 0 -26 -7 -30 -20z"/>
<path d="M20187 12303 c-12 -11 -8 -40 7 -52 16 -14 42 -5 50 16 11 29 -35 58
-57 36z"/>
<path d="M20294 12288 c-9 -28 20 -52 47 -37 11 5 19 14 19 19 0 42 -53 57
-66 18z"/>
<path d="M7643 12213 c3 -5 12 -34 21 -65 22 -78 47 -80 72 -5 9 28 19 58 22
65 2 6 -3 12 -11 12 -9 0 -21 -18 -30 -42 -10 -28 -17 -38 -21 -28 -3 8 -10
27 -15 43 -6 15 -18 27 -26 27 -9 0 -14 -3 -12 -7z"/>
<path d="M9443 12213 c3 -5 12 -34 21 -65 22 -78 47 -80 72 -5 9 28 19 58 22
65 2 6 -3 12 -11 12 -9 0 -21 -18 -30 -42 -10 -28 -17 -38 -21 -28 -3 8 -10
27 -15 43 -6 15 -18 27 -26 27 -9 0 -14 -3 -12 -7z"/>
<path d="M18093 12213 c3 -5 12 -34 21 -65 22 -78 47 -80 72 -5 9 28 19 58 22
65 2 6 -3 12 -11 12 -9 0 -21 -18 -30 -42 -10 -28 -17 -38 -21 -28 -3 8 -10
27 -15 43 -6 15 -18 27 -26 27 -9 0 -14 -3 -12 -7z"/>
<path d="M8014 12176 l-34 -34 -1 -118 c0 -66 -5 -134 -12 -153 -23 -67 -104
-98 -171 -66 -51 24 -66 59 -66 150 l0 75 -31 0 -32 0 5 -84 c4 -61 12 -95 28
-124 61 -108 236 -111 301 -5 21 34 24 52 27 171 4 128 5 133 29 152 14 11 41
20 59 20 l34 0 0 -130 0 -130 75 0 c44 0 90 6 111 15 32 13 39 13 64 0 33 -17
136 -20 176 -5 48 19 53 36 54 163 l0 117 -25 0 c-25 0 -25 0 -25 -98 0 -122
-8 -132 -96 -132 -33 0 -65 5 -72 12 -8 8 -12 48 -12 115 l0 103 -30 0 -30 0
0 -103 c0 -67 -4 -107 -12 -115 -7 -7 -38 -12 -70 -12 l-58 0 0 125 0 125 -76
0 c-73 0 -77 -1 -110 -34z"/>
<path d="M9814 12176 l-34 -34 -1 -118 c0 -66 -5 -134 -12 -153 -23 -67 -104
-98 -171 -66 -52 25 -66 59 -66 155 l0 80 -31 0 -32 0 5 -88 c5 -92 19 -131
60 -169 74 -69 216 -51 270 35 20 33 23 52 26 170 4 128 5 133 29 152 14 11
41 20 59 20 l34 0 0 -130 0 -130 25 0 25 0 0 155 0 155 -76 0 c-73 0 -77 -1
-110 -34z"/>
<path d="M10464 12176 c-33 -33 -34 -36 -34 -114 0 -66 4 -84 22 -107 28 -36
76 -55 136 -55 47 0 49 -1 45 -24 -9 -44 -39 -61 -104 -60 -55 1 -59 -1 -59
-21 0 -35 66 -46 143 -24 65 18 77 50 77 206 0 189 -27 233 -140 233 -46 0
-56 -4 -86 -34z m139 -30 c23 -18 37 -68 37 -133 l0 -53 -59 0 c-52 0 -62 3
-80 26 -31 39 -29 117 4 149 27 28 70 32 98 11z"/>
<path d="M11019 12195 c-80 -43 -78 -229 2 -270 41 -21 112 -19 140 4 24 19
24 19 47 -2 18 -17 39 -22 97 -25 68 -4 76 -2 99 21 25 25 26 31 26 147 l0
120 -30 0 -29 0 -3 -112 -3 -113 -57 -3 c-79 -4 -88 11 -88 145 l0 103 -87 0
c-57 -1 -97 -6 -114 -15z m151 -114 c0 -74 -2 -81 -26 -100 -29 -23 -64 -27
-94 -11 -25 13 -43 74 -35 116 10 55 36 74 100 74 l55 0 0 -79z"/>
<path d="M18464 12176 l-34 -34 -1 -118 c0 -66 -5 -134 -12 -153 -23 -67 -104
-98 -171 -66 -51 24 -66 59 -66 150 l0 75 -31 0 -32 0 5 -84 c4 -61 12 -95 28
-124 61 -108 236 -111 301 -5 21 34 24 52 27 171 4 128 5 133 29 152 14 11 41
20 59 20 l34 0 0 -130 0 -130 110 0 c104 0 112 1 135 25 24 23 25 30 25 145
l0 120 -30 0 -29 0 -3 -112 -3 -113 -77 -3 -78 -3 0 126 0 125 -76 0 c-73 0
-77 -1 -110 -34z"/>
<path d="M18974 12176 c-33 -33 -34 -36 -34 -114 0 -66 4 -84 22 -107 28 -36
76 -55 136 -55 47 0 49 -1 45 -24 -9 -44 -39 -61 -104 -60 -55 1 -59 -1 -59
-21 0 -35 66 -46 143 -24 43 11 77 56 77 101 l0 26 133 4 c143 3 172 13 195
64 18 39 15 160 -4 190 -52 78 -190 71 -229 -12 -20 -42 -20 -133 1 -162 15
-22 15 -22 -40 -22 l-56 0 0 75 c0 125 -40 175 -140 175 -46 0 -56 -4 -86 -34z
m139 -30 c23 -18 37 -68 37 -133 l0 -53 -59 0 c-52 0 -62 3 -80 26 -31 39 -29
117 4 149 27 28 70 32 98 11z m352 -11 c34 -33 36 -117 3 -152 -42 -44 -120
-22 -133 38 -23 104 64 181 130 114z"/>
<path d="M10140 12030 c0 -157 -2 -172 -20 -190 -11 -11 -33 -20 -50 -20 -27
0 -30 -3 -30 -30 0 -26 4 -30 26 -30 40 0 93 30 109 61 12 21 15 69 15 204 l0
175 -25 0 -25 0 0 -170z"/>
<path d="M10820 12030 c0 -157 -2 -172 -20 -190 -11 -11 -33 -20 -50 -20 -27
0 -30 -3 -30 -30 0 -26 4 -30 26 -30 40 0 93 30 109 61 12 21 15 69 15 204 l0
175 -25 0 -25 0 0 -170z"/>
<path d="M20740 12030 c0 -157 -2 -172 -20 -190 -11 -11 -33 -20 -50 -20 -27
0 -30 -3 -30 -30 0 -26 4 -30 26 -30 40 0 93 30 109 61 12 21 15 69 15 204 l0
175 -25 0 -25 0 0 -170z"/>
<path d="M21480 12030 c0 -157 -2 -172 -20 -190 -11 -11 -33 -20 -50 -20 -27
0 -30 -3 -30 -30 0 -25 4 -30 25 -30 41 0 89 25 110 56 18 26 20 50 23 207 l4
177 -31 0 -31 0 0 -170z"/>
<path d="M3672 11928 c2 -15 10 -23 23 -23 13 0 21 8 23 23 3 18 -1 22 -23 22
-22 0 -26 -4 -23 -22z"/>
<path d="M3842 11928 c2 -15 10 -23 23 -23 13 0 21 8 23 23 3 18 -1 22 -23 22
-22 0 -26 -4 -23 -22z"/>
<path d="M4002 11928 c2 -15 10 -23 23 -23 13 0 21 8 23 23 3 18 -1 22 -23 22
-22 0 -26 -4 -23 -22z"/>
<path d="M4172 11928 c2 -15 10 -23 23 -23 13 0 21 8 23 23 3 18 -1 22 -23 22
-22 0 -26 -4 -23 -22z"/>
<path d="M4342 11928 c2 -15 10 -23 23 -23 13 0 21 8 23 23 3 18 -1 22 -23 22
-22 0 -26 -4 -23 -22z"/>
<path d="M4512 11928 c2 -15 10 -23 23 -23 13 0 21 8 23 23 3 18 -1 22 -23 22
-22 0 -26 -4 -23 -22z"/>
<path d="M4682 11928 c2 -15 10 -23 23 -23 13 0 21 8 23 23 3 18 -1 22 -23 22
-22 0 -26 -4 -23 -22z"/>
<path d="M4842 11928 c2 -15 10 -23 23 -23 13 0 21 8 23 23 3 18 -1 22 -23 22
-22 0 -26 -4 -23 -22z"/>
<path d="M5012 11928 c2 -15 10 -23 23 -23 13 0 21 8 23 23 3 18 -1 22 -23 22
-22 0 -26 -4 -23 -22z"/>
<path d="M5182 11928 c2 -15 10 -23 23 -23 13 0 21 8 23 23 3 18 -1 22 -23 22
-22 0 -26 -4 -23 -22z"/>
<path d="M5352 11928 c2 -15 10 -23 23 -23 13 0 21 8 23 23 3 18 -1 22 -23 22
-22 0 -26 -4 -23 -22z"/>
<path d="M5522 11928 c2 -15 10 -23 23 -23 13 0 21 8 23 23 3 18 -1 22 -23 22
-22 0 -26 -4 -23 -22z"/>
<path d="M5682 11928 c2 -15 10 -23 23 -23 13 0 21 8 23 23 3 18 -1 22 -23 22
-22 0 -26 -4 -23 -22z"/>
<path d="M5852 11928 c2 -15 10 -23 23 -23 13 0 21 8 23 23 3 18 -1 22 -23 22
-22 0 -26 -4 -23 -22z"/>
<path d="M6022 11928 c2 -15 10 -23 23 -23 13 0 21 8 23 23 3 18 -1 22 -23 22
-22 0 -26 -4 -23 -22z"/>
<path d="M6192 11928 c2 -15 10 -23 23 -23 13 0 21 8 23 23 3 18 -1 22 -23 22
-22 0 -26 -4 -23 -22z"/>
<path d="M6362 11928 c2 -15 10 -23 23 -23 13 0 21 8 23 23 3 18 -1 22 -23 22
-22 0 -26 -4 -23 -22z"/>
<path d="M6532 11928 c2 -15 10 -23 23 -23 13 0 21 8 23 23 3 18 -1 22 -23 22
-22 0 -26 -4 -23 -22z"/>
<path d="M6692 11928 c2 -15 10 -23 23 -23 13 0 21 8 23 23 3 18 -1 22 -23 22
-22 0 -26 -4 -23 -22z"/>
<path d="M6862 11928 c2 -15 10 -23 23 -23 13 0 21 8 23 23 3 18 -1 22 -23 22
-22 0 -26 -4 -23 -22z"/>
<path d="M7032 11928 c2 -15 10 -23 23 -23 13 0 21 8 23 23 3 18 -1 22 -23 22
-22 0 -26 -4 -23 -22z"/>
<path d="M7202 11928 c2 -15 10 -23 23 -23 13 0 21 8 23 23 3 18 -1 22 -23 22
-22 0 -26 -4 -23 -22z"/>
<path d="M7372 11928 c2 -15 10 -23 23 -23 13 0 21 8 23 23 3 18 -1 22 -23 22
-22 0 -26 -4 -23 -22z"/>
<path d="M7532 11928 c2 -15 10 -23 23 -23 13 0 21 8 23 23 3 18 -1 22 -23 22
-22 0 -26 -4 -23 -22z"/>
<path d="M11762 11928 c2 -15 10 -23 23 -23 13 0 21 8 23 23 3 18 -1 22 -23
22 -22 0 -26 -4 -23 -22z"/>
<path d="M11932 11928 c2 -15 10 -23 23 -23 13 0 21 8 23 23 3 18 -1 22 -23
22 -22 0 -26 -4 -23 -22z"/>
<path d="M12102 11928 c2 -15 10 -23 23 -23 13 0 21 8 23 23 3 18 -1 22 -23
22 -22 0 -26 -4 -23 -22z"/>
<path d="M12272 11928 c2 -15 10 -23 23 -23 13 0 21 8 23 23 3 18 -1 22 -23
22 -22 0 -26 -4 -23 -22z"/>
<path d="M12442 11928 c2 -15 10 -23 23 -23 13 0 21 8 23 23 3 18 -1 22 -23
22 -22 0 -26 -4 -23 -22z"/>
<path d="M12602 11928 c2 -15 10 -23 23 -23 13 0 21 8 23 23 3 18 -1 22 -23
22 -22 0 -26 -4 -23 -22z"/>
<path d="M12772 11928 c2 -15 10 -23 23 -23 13 0 21 8 23 23 3 18 -1 22 -23
22 -22 0 -26 -4 -23 -22z"/>
<path d="M12942 11928 c2 -15 10 -23 23 -23 13 0 21 8 23 23 3 18 -1 22 -23
22 -22 0 -26 -4 -23 -22z"/>
<path d="M13112 11928 c2 -15 10 -23 23 -23 13 0 21 8 23 23 3 18 -1 22 -23
22 -22 0 -26 -4 -23 -22z"/>
<path d="M13282 11928 c2 -15 10 -23 23 -23 13 0 21 8 23 23 3 18 -1 22 -23
22 -22 0 -26 -4 -23 -22z"/>
<path d="M13452 11928 c2 -15 10 -23 23 -23 13 0 21 8 23 23 3 18 -1 22 -23
22 -22 0 -26 -4 -23 -22z"/>
<path d="M13612 11928 c2 -15 10 -23 23 -23 13 0 21 8 23 23 3 18 -1 22 -23
22 -22 0 -26 -4 -23 -22z"/>
<path d="M13782 11928 c2 -15 10 -23 23 -23 13 0 21 8 23 23 3 18 -1 22 -23
22 -22 0 -26 -4 -23 -22z"/>
<path d="M13952 11928 c2 -15 10 -23 23 -23 13 0 21 8 23 23 3 18 -1 22 -23
22 -22 0 -26 -4 -23 -22z"/>
<path d="M14122 11928 c2 -15 10 -23 23 -23 13 0 21 8 23 23 3 18 -1 22 -23
22 -22 0 -26 -4 -23 -22z"/>
<path d="M14292 11928 c2 -15 10 -23 23 -23 13 0 21 8 23 23 3 18 -1 22 -23
22 -22 0 -26 -4 -23 -22z"/>
<path d="M14452 11928 c2 -15 10 -23 23 -23 13 0 21 8 23 23 3 18 -1 22 -23
22 -22 0 -26 -4 -23 -22z"/>
<path d="M14622 11928 c2 -15 10 -23 23 -23 13 0 21 8 23 23 3 18 -1 22 -23
22 -22 0 -26 -4 -23 -22z"/>
<path d="M14792 11928 c2 -15 10 -23 23 -23 13 0 21 8 23 23 3 18 -1 22 -23
22 -22 0 -26 -4 -23 -22z"/>
<path d="M14962 11928 c2 -15 10 -23 23 -23 13 0 21 8 23 23 3 18 -1 22 -23
22 -22 0 -26 -4 -23 -22z"/>
<path d="M15132 11928 c2 -15 10 -23 23 -23 13 0 21 8 23 23 3 18 -1 22 -23
22 -22 0 -26 -4 -23 -22z"/>
<path d="M15292 11928 c2 -15 10 -23 23 -23 13 0 21 8 23 23 3 18 -1 22 -23
22 -22 0 -26 -4 -23 -22z"/>
<path d="M15462 11928 c2 -15 10 -23 23 -23 13 0 21 8 23 23 3 18 -1 22 -23
22 -22 0 -26 -4 -23 -22z"/>
<path d="M15632 11928 c2 -15 10 -23 23 -23 13 0 21 8 23 23 3 18 -1 22 -23
22 -22 0 -26 -4 -23 -22z"/>
<path d="M15802 11928 c2 -15 10 -23 23 -23 13 0 21 8 23 23 3 18 -1 22 -23
22 -22 0 -26 -4 -23 -22z"/>
<path d="M15972 11928 c2 -15 10 -23 23 -23 13 0 21 8 23 23 3 18 -1 22 -23
22 -22 0 -26 -4 -23 -22z"/>
<path d="M16142 11928 c2 -15 10 -23 23 -23 13 0 21 8 23 23 3 18 -1 22 -23
22 -22 0 -26 -4 -23 -22z"/>
<path d="M16302 11928 c2 -15 10 -23 23 -23 13 0 21 8 23 23 3 18 -1 22 -23
22 -22 0 -26 -4 -23 -22z"/>
<path d="M16472 11928 c2 -15 10 -23 23 -23 13 0 21 8 23 23 3 18 -1 22 -23
22 -22 0 -26 -4 -23 -22z"/>
<path d="M16642 11928 c2 -15 10 -23 23 -23 13 0 21 8 23 23 3 18 -1 22 -23
22 -22 0 -26 -4 -23 -22z"/>
<path d="M16812 11928 c2 -15 10 -23 23 -23 13 0 21 8 23 23 3 18 -1 22 -23
22 -22 0 -26 -4 -23 -22z"/>
<path d="M16982 11928 c2 -15 10 -23 23 -23 13 0 21 8 23 23 3 18 -1 22 -23
22 -22 0 -26 -4 -23 -22z"/>
<path d="M17142 11928 c2 -15 10 -23 23 -23 13 0 21 8 23 23 3 18 -1 22 -23
22 -22 0 -26 -4 -23 -22z"/>
<path d="M17312 11928 c2 -15 10 -23 23 -23 13 0 21 8 23 23 3 18 -1 22 -23
22 -22 0 -26 -4 -23 -22z"/>
<path d="M17482 11928 c2 -15 10 -23 23 -23 13 0 21 8 23 23 3 18 -1 22 -23
22 -22 0 -26 -4 -23 -22z"/>
<path d="M17652 11928 c2 -15 10 -23 23 -23 13 0 21 8 23 23 3 18 -1 22 -23
22 -22 0 -26 -4 -23 -22z"/>
<path d="M17822 11928 c2 -15 10 -23 23 -23 13 0 21 8 23 23 3 18 -1 22 -23
22 -22 0 -26 -4 -23 -22z"/>
<path d="M17982 11928 c2 -15 10 -23 23 -23 13 0 21 8 23 23 3 18 -1 22 -23
22 -22 0 -26 -4 -23 -22z"/>
<path d="M8490 11825 c-18 -21 -3 -55 25 -55 15 0 26 7 30 20 7 23 -10 50 -30
50 -7 0 -18 -7 -25 -15z"/>
<path d="M8599 11824 c-17 -21 0 -49 32 -49 27 0 37 28 19 50 -16 19 -34 19
-51 -1z"/>
<path d="M11352 11821 c-8 -4 -12 -19 -10 -32 2 -18 9 -24 28 -24 19 0 26 6
28 24 3 20 -11 41 -28 41 -3 0 -11 -4 -18 -9z"/>
<path d="M8720 11663 c11 -38 24 -59 35 -61 24 -5 31 5 49 66 14 49 14 53 -1
50 -9 -2 -21 -21 -28 -43 l-12 -40 -12 28 c-6 16 -11 35 -11 43 0 8 -9 14 -19
14 -18 0 -18 -2 -1 -57z"/>
<path d="M3238 10048 c-2 -739 -2 -1985 0 -2770 l2 -1428 9265 0 9265 0 0
2770 0 2770 -9265 0 -9265 0 -2 -1342z m2452 887 l0 -385 -1190 0 -1190 0 0
385 0 385 1190 0 1190 0 0 -385z m1810 0 l0 -385 -875 0 -875 0 0 385 0 385
875 0 875 0 0 -385z m11420 0 l0 -385 -5680 0 -5680 0 0 385 0 385 5680 0
5680 0 0 -385z m2780 0 l0 -385 -1360 0 -1360 0 0 385 0 385 1360 0 1360 0 0
-385z m-16010 -860 l0 -415 -1190 0 -1190 0 0 415 0 415 1190 0 1190 0 0 -415z
m1810 0 l0 -415 -875 0 -875 0 0 415 0 415 875 0 875 0 0 -415z m11420 0 l0
-415 -5680 0 -5680 0 0 415 0 415 5680 0 5680 0 0 -415z m2780 0 l0 -415
-1360 0 -1360 0 0 415 0 415 1360 0 1360 0 0 -415z m-16010 -905 l0 -430
-1190 0 -1190 0 0 430 0 430 1190 0 1190 0 0 -430z m1810 0 l0 -430 -875 0
-875 0 0 430 0 430 875 0 875 0 0 -430z m11420 0 l0 -430 -5680 0 -5680 0 0
430 0 430 5680 0 5680 0 0 -430z m2780 0 l0 -430 -1360 0 -1360 0 0 430 0 430
1360 0 1360 0 0 -430z m-16010 -895 l0 -405 -1190 0 -1190 0 0 405 0 405 1190
0 1190 0 0 -405z m1810 0 l0 -405 -875 0 -875 0 0 405 0 405 875 0 875 0 0
-405z m11420 0 l0 -405 -5680 0 -5680 0 0 405 0 405 5680 0 5680 0 0 -405z
m2780 0 l0 -405 -1360 0 -1360 0 0 405 0 405 1360 0 1360 0 0 -405z m-16010
-895 l0 -430 -1190 0 -1190 0 0 430 0 430 1190 0 1190 0 0 -430z m1810 0 l0
-430 -875 0 -875 0 0 430 0 430 875 0 875 0 0 -430z m11420 0 l0 -430 -5680 0
-5680 0 0 430 0 430 5680 0 5680 0 0 -430z m2780 0 l0 -430 -1360 0 -1360 0 0
430 0 430 1360 0 1360 0 0 -430z m-16010 -975 l0 -485 -1190 0 -1190 0 0 485
0 485 1190 0 1190 0 0 -485z m1810 0 l0 -485 -875 0 -875 0 0 485 0 485 875 0
875 0 0 -485z m11420 0 l0 -485 -5680 0 -5680 0 0 485 0 485 5680 0 5680 0 0
-485z m2780 0 l0 -485 -1360 0 -1360 0 0 485 0 485 1360 0 1360 0 0 -485z"/>
<path d="M4110 11048 c0 -112 4 -208 8 -214 15 -23 53 -34 121 -34 l71 0 0
-30 c0 -75 45 -127 117 -137 82 -11 153 50 153 130 l0 37 69 0 c38 0 81 4 95
10 36 13 48 66 44 190 l-3 105 -27 3 -28 3 0 -106 c0 -141 -3 -145 -91 -145
-64 0 -70 2 -64 18 18 40 16 136 -2 171 -52 99 -178 105 -240 12 -19 -29 -23
-47 -23 -118 l0 -84 -67 3 -68 3 -3 193 -2 192 -30 0 -30 0 0 -202z m385 16
c37 -15 59 -110 35 -155 -16 -29 -64 -49 -121 -49 l-51 0 3 79 c4 67 8 83 28
105 24 26 68 34 106 20z m35 -269 c0 -31 -23 -90 -40 -100 -6 -4 -27 -7 -47
-7 -44 0 -72 26 -80 75 l-6 37 54 1 c30 0 63 4 74 9 34 15 45 11 45 -15z"/>
<path d="M4705 10716 c-20 -15 -17 -44 7 -59 12 -8 21 -7 32 2 36 30 -1 85
-39 57z"/>
<path d="M6761 11261 c-13 -24 8 -55 34 -50 28 6 42 34 26 53 -18 22 -48 20
-60 -3z"/>
<path d="M6140 10986 c0 -221 2 -229 56 -242 44 -11 132 1 154 21 17 15 25 17
39 8 10 -6 37 -17 60 -23 35 -9 48 -8 87 9 36 17 49 29 66 67 24 54 21 138 -6
180 -38 57 -118 78 -181 48 -55 -26 -75 -65 -75 -150 0 -89 -15 -107 -86 -102
l-49 3 -3 193 -2 192 -30 0 -30 0 0 -204z m391 5 c21 -16 24 -28 24 -81 0 -56
-3 -64 -29 -87 -33 -28 -75 -26 -108 4 -28 25 -25 129 4 160 27 29 77 30 109
4z"/>
<path d="M6704 11176 c-10 -26 1 -51 22 -54 27 -4 47 21 39 48 -7 24 -53 28
-61 6z"/>
<path d="M6820 11175 c-18 -22 -1 -50 31 -50 20 0 24 5 24 30 0 23 -5 31 -21
33 -11 2 -27 -4 -34 -13z"/>
<path d="M7106 11063 c-17 -3 -30 -12 -33 -23 -3 -11 -14 -22 -24 -25 -53 -17
-83 -113 -55 -178 l15 -37 -90 0 -89 0 0 125 0 125 -30 0 -30 0 0 -173 c0
-194 -5 -210 -65 -221 -31 -6 -35 -11 -35 -36 0 -33 7 -35 59 -20 49 14 90 57
97 102 l7 38 226 0 c195 0 231 2 261 18 53 26 80 74 80 141 0 106 -65 162
-195 167 -38 1 -83 0 -99 -3z m179 -67 c42 -18 55 -42 55 -101 0 -56 -32 -95
-80 -95 l-30 0 0 65 c0 78 -15 114 -55 131 -30 13 -30 13 23 14 29 0 68 -6 87
-14z m-131 -37 c24 -19 26 -27 26 -90 l0 -69 -48 0 c-69 0 -92 24 -92 95 0 44
4 57 22 69 31 22 60 20 92 -5z"/>
<path d="M5980 10877 c0 -194 -5 -210 -65 -221 -31 -6 -35 -11 -35 -36 0 -17
5 -30 13 -30 35 0 86 23 113 51 l29 30 3 190 3 189 -30 0 -31 0 0 -173z"/>
<path d="M13960 11048 c0 -112 4 -208 8 -214 15 -23 53 -34 121 -34 38 0 81 4
95 10 36 13 48 66 44 190 l-3 105 -27 3 -28 3 0 -108 c0 -138 -5 -145 -85
-141 l-60 3 -3 193 -2 192 -30 0 -30 0 0 -202z"/>
<path d="M12970 11185 c-20 -25 -8 -50 25 -50 24 0 31 5 33 24 6 37 -34 55
-58 26z"/>
<path d="M13081 11182 c-13 -25 5 -52 34 -52 15 0 26 7 30 20 13 41 -44 70
-64 32z"/>
<path d="M13465 11116 c-58 -26 -79 -60 -83 -134 -4 -76 14 -122 60 -155 37
-27 109 -27 146 -1 l27 20 34 -23 c27 -18 48 -23 97 -23 34 0 74 4 88 10 36
13 48 66 44 190 l-3 105 -27 3 -28 3 0 -106 c0 -136 -5 -145 -75 -145 -80 0
-85 8 -85 151 l0 119 -82 0 c-47 -1 -96 -7 -113 -14z m135 -131 c0 -80 -1 -85
-26 -102 -15 -9 -42 -17 -62 -17 -50 0 -72 31 -72 101 0 76 27 103 105 103
l55 0 0 -85z"/>
<path d="M13240 11006 c0 -91 -3 -118 -16 -130 -12 -13 -41 -16 -153 -16 -125
0 -141 2 -165 21 -24 19 -26 27 -26 90 l0 69 -30 0 -30 0 0 -72 c0 -56 5 -81
20 -106 34 -55 70 -64 252 -60 l160 3 24 28 c23 27 24 35 24 158 l0 129 -30 0
-30 0 0 -114z"/>
<path d="M13795 10716 c-20 -15 -17 -44 7 -59 12 -8 21 -7 32 2 36 30 -1 85
-39 57z"/>
<path d="M14145 10716 c-20 -15 -17 -44 7 -59 12 -8 21 -7 32 2 36 30 -1 85
-39 57z"/>
<path d="M19405 11156 c-58 -25 -85 -81 -85 -172 0 -43 -3 -54 -20 -59 -10 -3
-31 -20 -45 -36 -24 -29 -25 -37 -25 -145 l0 -114 30 0 30 0 0 110 c0 101 2
110 21 121 18 9 29 7 61 -11 76 -43 180 -23 213 40 23 45 20 176 -5 218 -34
55 -111 76 -175 48z m109 -67 c24 -19 26 -27 26 -90 0 -56 -4 -73 -20 -89 -23
-23 -98 -28 -118 -8 -7 7 -12 43 -12 89 0 72 2 79 26 98 15 12 37 21 49 21 12
0 34 -9 49 -21z"/>
<path d="M19775 11156 c-58 -26 -79 -60 -83 -134 -4 -76 14 -122 60 -155 37
-27 109 -27 146 -1 l27 20 34 -23 c33 -22 41 -23 247 -23 l214 0 0 29 c0 16
-7 34 -16 42 -9 7 -33 47 -54 88 -58 114 -116 162 -201 163 -56 1 -79 -10 -79
-37 0 -22 3 -23 53 -19 84 8 122 -25 184 -158 l22 -48 -164 0 c-135 0 -166 3
-179 16 -13 12 -16 40 -16 135 l0 119 -82 0 c-47 -1 -96 -7 -113 -14z m135
-131 c0 -80 -1 -85 -26 -102 -15 -9 -42 -17 -62 -17 -50 0 -72 31 -72 101 0
76 27 103 105 103 l55 0 0 -85z"/>
<path d="M20775 11156 c-58 -26 -79 -60 -83 -134 -4 -76 14 -122 60 -155 37
-27 109 -27 146 -1 l27 20 34 -23 c40 -27 116 -31 161 -8 27 14 33 14 60 0 37
-19 73 -19 111 1 28 14 34 14 66 -1 42 -20 95 -15 126 12 36 32 47 77 47 188
l0 105 -30 0 -30 0 0 -110 c0 -97 -2 -112 -20 -130 -24 -24 -48 -25 -78 -4
-20 14 -22 24 -22 100 l0 84 -30 0 -30 0 0 -90 c0 -78 -2 -91 -19 -100 -28
-14 -57 -12 -75 6 -12 12 -16 36 -16 100 l0 84 -30 0 -30 0 0 -84 c0 -101 -10
-116 -75 -116 -69 0 -75 12 -75 151 l0 119 -82 0 c-47 -1 -96 -7 -113 -14z
m135 -131 c0 -80 -1 -85 -26 -102 -15 -9 -42 -17 -62 -17 -50 0 -72 31 -72
101 0 76 27 103 105 103 l55 0 0 -85z"/>
<path d="M20540 10977 c0 -194 -5 -210 -65 -221 -31 -6 -35 -11 -35 -36 0 -17
5 -30 13 -30 35 0 86 23 113 51 l29 30 3 190 3 189 -30 0 -31 0 0 -173z"/>
<path d="M20185 10760 c-8 -27 12 -52 39 -48 16 2 21 10 21 33 0 25 -4 31 -27
33 -19 2 -28 -2 -33 -18z"/>
<path d="M3270 5080 l0 -530 9245 0 9245 0 0 530 0 530 -9245 0 -9245 0 0
-530z m15650 0 l0 -480 -7800 0 -7800 0 0 480 0 480 7800 0 7800 0 0 -480z
m2790 0 l0 -480 -1365 0 -1365 0 0 480 0 480 1365 0 1365 0 0 -480z"/>
<path d="M3380 4285 l0 -25 9120 0 9120 0 0 25 0 25 -9120 0 -9120 0 0 -25z"/>
<path d="M13665 3921 c-113 -52 -166 -178 -126 -299 12 -37 12 -49 -1 -97 -17
-62 -18 -61 57 -42 41 11 55 11 80 1 17 -7 55 -13 86 -14 189 -1 301 210 195
369 -60 90 -193 127 -291 82z m184 -37 c135 -67 149 -242 28 -338 -31 -25 -49
-31 -101 -34 -44 -3 -72 1 -93 12 -23 12 -39 13 -64 6 -19 -6 -34 -10 -35 -10
-1 0 -1 21 -1 48 0 26 -6 70 -14 99 -17 67 -2 120 49 175 66 69 146 84 231 42z"/>
<path d="M13650 3789 c-7 -11 -8 -34 -5 -51 10 -43 90 -120 142 -137 37 -12
45 -12 68 3 32 21 32 43 0 58 -19 9 -31 8 -49 -1 -27 -15 -48 -7 -84 32 -19
21 -22 29 -13 45 8 15 8 28 -1 46 -14 31 -43 34 -58 5z"/>
<path d="M10185 3866 c-59 -27 -77 -46 -104 -106 -37 -81 -24 -184 32 -247 44
-50 98 -73 177 -73 85 0 110 7 110 32 0 16 -4 18 -22 12 -40 -13 -143 -7 -175
9 -58 30 -103 106 -103 172 0 80 64 164 138 185 119 32 231 -39 239 -152 5
-63 -12 -102 -46 -106 -34 -5 -41 12 -41 106 0 75 -2 82 -20 82 -12 0 -20 -7
-20 -17 0 -14 -2 -14 -20 2 -26 24 -84 23 -111 -1 -45 -40 -49 -136 -8 -188
26 -34 96 -37 124 -6 l18 20 14 -20 c16 -22 71 -27 105 -9 67 36 62 207 -9
271 -66 60 -191 75 -278 34z m136 -135 c19 -15 24 -29 24 -64 0 -55 -17 -77
-61 -77 -40 0 -54 21 -54 79 0 28 7 48 20 61 25 25 41 25 71 1z"/>
<path d="M14199 3876 c-15 -9 -35 -37 -49 -68 -19 -44 -22 -65 -18 -133 5 -96
26 -141 78 -168 70 -36 155 2 181 82 30 88 5 239 -45 280 -25 21 -115 25 -147
7z m120 -39 c41 -34 55 -171 25 -245 -24 -61 -80 -79 -127 -42 -66 52 -55 271
16 300 25 10 65 4 86 -13z"/>
<path d="M15049 3876 c-15 -9 -35 -37 -49 -68 -19 -44 -22 -65 -18 -133 5 -96
26 -141 78 -168 70 -36 155 2 181 82 30 88 5 239 -45 280 -25 21 -115 25 -147
7z m120 -39 c41 -34 55 -171 25 -245 -24 -61 -80 -79 -127 -42 -66 52 -55 271
16 300 25 10 65 4 86 -13z"/>
<path d="M15484 3871 c-41 -25 -47 -35 -47 -83 0 -27 7 -46 21 -60 l21 -21
-30 -28 c-60 -56 -25 -156 64 -180 84 -22 178 13 195 74 13 48 4 83 -28 110
l-27 23 23 28 c42 48 26 109 -36 141 -41 21 -118 19 -156 -4z m136 -51 c24
-24 25 -38 4 -68 -17 -24 -70 -30 -105 -12 -25 14 -26 75 -1 89 29 17 80 13
102 -9z m5 -165 c30 -29 31 -45 4 -79 -15 -20 -29 -26 -58 -26 -52 0 -81 23
-81 65 0 64 86 89 135 40z"/>
<path d="M16460 3868 c-52 -36 -62 -105 -19 -144 18 -16 18 -17 -11 -44 -61
-57 -26 -157 63 -181 84 -22 178 13 195 74 13 48 4 83 -28 110 l-27 23 23 28
c61 70 -2 156 -114 156 -34 0 -59 -7 -82 -22z m140 -48 c24 -24 25 -38 4 -68
-11 -16 -25 -22 -53 -22 -48 0 -73 19 -73 55 0 16 7 34 18 42 27 20 81 16 104
-7z m5 -165 c30 -29 31 -45 4 -79 -15 -20 -29 -26 -58 -26 -52 0 -81 23 -81
65 0 64 86 89 135 40z"/>
<path d="M16800 3868 c-52 -36 -62 -105 -19 -144 18 -16 18 -17 -11 -44 -61
-57 -26 -157 63 -181 84 -22 178 13 195 74 13 48 4 83 -28 110 l-27 23 23 28
c61 70 -2 156 -114 156 -34 0 -59 -7 -82 -22z m140 -48 c24 -24 25 -38 4 -68
-17 -24 -70 -30 -105 -12 -25 14 -26 75 -1 89 29 17 80 13 102 -9z m5 -165
c30 -29 31 -45 4 -79 -15 -20 -29 -26 -58 -26 -52 0 -81 23 -81 65 0 64 86 89
135 40z"/>
<path d="M7346 3864 c-9 -8 -16 -31 -16 -50 0 -30 -3 -34 -25 -34 -18 0 -25
-5 -25 -20 0 -13 7 -20 20 -20 19 0 20 -7 20 -120 l0 -120 30 0 30 0 0 120 0
120 25 0 c18 0 25 5 25 20 0 16 -7 20 -30 20 -41 0 -41 35 0 58 16 9 30 23 30
30 0 18 -65 15 -84 -4z"/>
<path d="M11760 3690 l0 -190 25 0 25 0 0 190 0 190 -25 0 -25 0 0 -190z"/>
<path d="M14410 3865 c0 -12 17 -15 95 -15 52 0 95 -2 95 -5 0 -2 -18 -32 -40
-67 -41 -63 -75 -158 -83 -235 -5 -39 -3 -43 18 -43 20 0 23 6 28 59 9 79 40
158 93 238 24 36 44 70 44 74 0 5 -56 9 -125 9 -104 0 -125 -2 -125 -15z"/>
<path d="M14700 3803 c-6 -43 -14 -90 -17 -105 -7 -35 16 -38 54 -8 63 49 148
8 148 -72 0 -93 -130 -122 -166 -37 -7 18 -19 29 -31 29 -17 0 -19 -5 -14 -27
9 -38 58 -81 101 -89 108 -20 187 90 139 191 -25 53 -105 81 -156 54 -28 -15
-31 -8 -23 55 l7 56 84 0 c68 0 84 3 84 15 0 12 -18 15 -99 15 l-98 0 -13 -77z"/>
<path d="M15840 3867 c0 -21 -33 -46 -68 -53 -25 -5 -32 -12 -32 -30 0 -22 4
-24 45 -24 l45 0 0 -130 0 -130 35 0 35 0 0 190 0 190 -30 0 c-18 0 -30 -5
-30 -13z"/>
<path d="M16027 3771 c-73 -91 -87 -115 -87 -145 l0 -36 90 0 90 0 0 -45 0
-45 40 0 40 0 0 45 c0 41 2 45 25 45 21 0 25 5 25 30 0 25 -4 30 -25 30 -23 0
-25 4 -25 48 0 26 -3 77 -7 115 l-6 67 -37 0 c-35 0 -41 -6 -123 -109z m103
-46 l0 -75 -65 0 -66 0 58 75 c32 41 61 75 66 75 4 0 7 -34 7 -75z"/>
<path d="M17150 3867 c0 -21 -33 -46 -68 -53 -25 -5 -32 -12 -32 -30 0 -22 4
-24 45 -24 l45 0 0 -130 0 -130 35 0 35 0 0 190 0 190 -30 0 c-18 0 -30 -5
-30 -13z"/>
<path d="M17347 3771 c-73 -91 -87 -115 -87 -145 l0 -36 90 0 90 0 0 -45 0
-45 40 0 40 0 0 45 c0 41 2 45 25 45 21 0 25 5 25 30 0 25 -4 30 -25 30 -22 0
-25 4 -25 38 0 22 -3 73 -6 115 l-7 77 -37 0 c-35 0 -41 -6 -123 -109z m103
-46 l0 -75 -65 0 -66 0 58 75 c32 41 61 75 66 75 4 0 7 -34 7 -75z"/>
<path d="M8410 3845 c0 -20 5 -25 25 -25 20 0 25 5 25 25 0 20 -5 25 -25 25
-20 0 -25 -5 -25 -25z"/>
<path d="M11650 3845 c0 -20 5 -25 25 -25 20 0 25 5 25 25 0 20 -5 25 -25 25
-20 0 -25 -5 -25 -25z"/>
<path d="M8230 3778 c-13 -5 -33 -16 -42 -25 -17 -15 -20 -15 -41 5 -31 30
-93 30 -124 0 l-23 -21 0 21 c0 17 -6 22 -25 22 l-25 0 0 -140 0 -140 24 0
c24 0 24 2 28 99 3 111 18 141 69 141 46 0 59 -30 59 -142 0 -98 0 -98 25 -98
l25 0 0 100 c0 87 3 103 20 120 24 24 63 26 84 4 13 -12 16 -38 16 -120 l0
-104 25 0 25 0 0 114 c0 94 -3 118 -17 135 -23 27 -71 41 -103 29z"/>
<path d="M8646 3779 c-15 -4 -37 -16 -47 -25 -18 -16 -19 -16 -19 4 0 17 -6
22 -25 22 l-25 0 0 -140 0 -140 24 0 c24 0 24 2 28 101 3 92 5 103 27 120 32
26 76 25 95 -3 12 -17 16 -48 16 -120 0 -98 0 -98 25 -98 l25 0 0 100 c0 65
-5 113 -14 135 -8 19 -16 35 -18 35 -2 0 -17 4 -33 8 -17 5 -43 5 -59 1z"/>
<path d="M9554 3778 c-42 -11 -82 -53 -90 -95 -22 -119 59 -210 162 -181 66
18 115 98 61 98 -16 0 -28 -9 -35 -25 -13 -29 -54 -42 -91 -29 -18 7 -30 22
-41 52 -13 37 -13 47 0 84 11 30 23 45 41 52 37 13 78 0 91 -29 11 -25 58 -37
58 -15 0 21 -30 68 -47 75 -40 16 -80 21 -109 13z"/>
<path d="M10671 3782 c-82 -13 -129 -129 -86 -212 33 -64 121 -93 171 -55 27
21 34 19 34 -10 0 -38 -42 -75 -84 -75 -33 0 -66 20 -66 41 0 5 -11 9 -25 9
-33 0 -33 -29 0 -60 33 -31 118 -39 164 -15 51 26 61 63 61 230 l0 145 -25 0
c-16 0 -25 -6 -25 -15 0 -17 -12 -19 -26 -5 -15 15 -65 26 -93 22z m74 -48
c23 -9 45 -57 45 -99 0 -27 -8 -44 -29 -66 -36 -36 -70 -37 -108 -5 -24 21
-28 32 -28 74 0 78 54 121 120 96z"/>
<path d="M11015 3782 c-11 -2 -30 -13 -42 -25 l-23 -20 0 21 c0 17 -6 22 -25
22 l-25 0 0 -140 0 -140 24 0 c24 0 24 2 28 99 3 111 18 141 69 141 46 0 59
-30 59 -142 0 -98 0 -98 25 -98 l25 0 0 100 c0 87 3 103 20 120 24 24 63 26
84 4 13 -12 16 -38 16 -120 l0 -104 25 0 25 0 0 115 c0 110 -1 117 -25 140
-31 32 -91 34 -129 4 -27 -21 -27 -21 -49 -2 -25 23 -52 31 -82 25z"/>
<path d="M12054 3778 c-42 -11 -82 -53 -90 -95 -22 -119 59 -210 162 -181 66
18 115 98 61 98 -16 0 -28 -9 -35 -25 -13 -29 -54 -42 -91 -29 -18 7 -30 22
-41 52 -13 37 -13 47 0 84 11 30 23 45 41 52 37 13 78 0 91 -29 11 -25 58 -37
58 -15 0 21 -30 68 -47 75 -40 16 -80 21 -109 13z"/>
<path d="M12352 3779 c-115 -24 -140 -198 -38 -264 33 -22 103 -22 142 -2 59
30 82 131 48 203 -25 52 -86 77 -152 63z m73 -45 c22 -9 45 -57 45 -94 0 -37
-23 -85 -45 -94 -66 -25 -120 18 -120 94 0 76 54 119 120 94z"/>
<path d="M12855 3782 c-11 -2 -30 -13 -42 -25 l-23 -20 -23 21 c-16 15 -36 22
-62 22 -26 0 -46 -7 -62 -22 l-23 -21 0 21 c0 17 -6 22 -25 22 l-25 0 0 -140
0 -140 24 0 c24 0 24 2 28 99 3 111 18 141 69 141 46 0 59 -30 59 -142 0 -98
0 -98 25 -98 l25 0 0 100 c0 87 3 103 20 120 24 24 63 26 84 4 13 -12 16 -38
16 -120 l0 -104 25 0 25 0 0 114 c0 94 -3 118 -17 135 -20 23 -67 39 -98 33z"/>
<path d="M7492 3746 c-36 -34 -37 -36 -37 -105 0 -64 3 -72 29 -100 37 -38 82
-52 133 -41 35 8 83 49 83 71 0 17 -47 9 -65 -11 -26 -29 -79 -26 -110 5 -48
47 -36 55 80 55 l105 0 0 31 c0 45 -28 98 -61 114 -15 8 -49 15 -74 15 -38 0
-52 -6 -83 -34z m147 -32 c37 -47 29 -54 -59 -54 -88 0 -96 7 -59 54 16 20 29
26 59 26 30 0 43 -6 59 -26z"/>
<path d="M7760 3640 l0 -140 25 0 c25 0 25 1 25 89 0 103 19 141 71 141 24 0
29 4 29 25 0 32 -36 34 -74 4 l-26 -20 0 20 c0 16 -6 21 -25 21 l-25 0 0 -140z"/>
<path d="M8410 3640 l0 -140 25 0 25 0 0 140 0 140 -25 0 -25 0 0 -140z"/>
<path d="M8820 3680 c0 -127 14 -165 65 -179 40 -11 76 -2 107 26 17 15 18 14
18 -5 0 -17 6 -22 25 -22 l25 0 0 140 0 140 -24 0 c-23 0 -24 -2 -28 -101 -3
-91 -6 -103 -27 -120 -32 -26 -76 -24 -95 3 -12 17 -16 48 -16 120 0 98 0 98
-25 98 l-25 0 0 -100z"/>
<path d="M9135 3755 c-53 -52 -22 -108 74 -133 73 -19 95 -42 68 -69 -27 -27
-85 -22 -111 10 -12 15 -32 27 -45 27 -19 0 -21 -4 -15 -22 17 -58 81 -86 156
-69 73 17 99 72 58 124 -15 19 -37 29 -80 38 -65 13 -85 28 -75 58 12 40 92
34 115 -9 6 -11 20 -20 30 -20 28 0 26 35 -5 65 -20 21 -34 25 -85 25 -51 0
-65 -4 -85 -25z"/>
<path d="M9806 3759 c-78 -61 -74 -191 8 -244 33 -22 103 -22 142 -2 83 43 85
210 3 252 -43 22 -121 19 -153 -6z m119 -25 c22 -9 45 -57 45 -94 0 -37 -23
-85 -45 -94 -66 -25 -120 18 -120 94 0 76 54 119 120 94z"/>
<path d="M11401 3766 c-24 -13 -39 -37 -40 -63 -2 -23 44 -14 54 10 8 19 18
22 60 22 49 0 50 -1 50 -29 0 -32 -6 -35 -98 -51 -50 -8 -77 -36 -77 -80 0
-40 28 -74 63 -77 46 -3 83 4 100 19 15 15 19 15 35 0 26 -24 72 -22 72 2 0
10 -9 21 -20 24 -18 5 -20 14 -20 101 0 121 -11 136 -97 136 -32 -1 -69 -7
-82 -14z m111 -208 c-24 -24 -89 -29 -103 -8 -25 41 -2 68 68 78 47 7 48 7 51
-22 2 -19 -3 -36 -16 -48z"/>
<path d="M11650 3640 l0 -140 25 0 25 0 0 140 0 140 -25 0 -25 0 0 -140z"/>
<path d="M9370 3530 c0 -28 3 -30 35 -30 32 0 35 2 35 30 0 28 -3 30 -35 30
-32 0 -35 -2 -35 -30z"/>
<path d="M11870 3530 c0 -28 3 -30 35 -30 32 0 35 2 35 30 0 28 -3 30 -35 30
-32 0 -35 -2 -35 -30z"/>
<path d="M9724 3015 c-7 -18 3 -35 21 -35 15 0 24 19 18 38 -6 17 -32 15 -39
-3z"/>
<path d="M5640 2995 c-10 -11 -10 -19 -2 -27 15 -15 44 -2 40 19 -4 23 -22 27
-38 8z"/>
<path d="M16014 2995 c-4 -9 -2 -21 4 -27 15 -15 44 -1 40 19 -4 23 -36 29
-44 8z"/>
<path d="M5930 2986 c0 -28 23 -76 36 -76 14 0 22 14 38 68 11 35 -11 26 -24
-10 l-13 -33 -10 33 c-10 32 -27 44 -27 18z"/>
<path d="M8752 2987 c-6 -7 -10 -27 -10 -45 1 -30 3 -32 40 -32 21 0 38 5 38
10 0 6 -11 10 -25 10 -28 0 -44 25 -27 42 8 8 16 8 27 -2 20 -17 32 -5 15 15
-15 18 -44 20 -58 2z"/>
<path d="M16300 2989 c0 -28 24 -89 36 -89 7 0 19 21 28 47 19 55 19 53 7 53
-5 0 -15 -15 -21 -32 l-13 -33 -10 33 c-9 31 -27 44 -27 21z"/>
<path d="M4722 2824 c3 -131 5 -147 22 -160 15 -11 57 -14 178 -14 150 0 158
1 158 19 0 11 -5 23 -10 26 -6 4 -23 32 -39 63 -45 89 -102 130 -163 117 -43
-10 -36 -35 10 -35 21 0 48 -7 60 -16 21 -15 72 -102 72 -124 0 -6 -44 -10
-119 -10 -99 0 -120 3 -125 16 -3 9 -6 72 -6 140 0 119 -1 124 -21 124 -20 0
-20 -4 -17 -146z"/>
<path d="M7142 2824 c3 -132 5 -147 23 -160 16 -12 51 -15 182 -12 155 3 162
4 187 27 22 20 26 33 26 78 0 30 -4 62 -10 72 -13 26 -82 51 -139 51 -41 0
-53 -5 -91 -39 -42 -38 -43 -39 -38 -95 l5 -56 -48 0 c-33 0 -49 4 -53 16 -3
9 -6 72 -6 140 0 119 -1 124 -21 124 -20 0 -20 -4 -17 -146z m319 16 c31 0 69
-44 69 -80 0 -37 -33 -72 -63 -68 -19 3 -23 11 -27 63 -4 50 -9 61 -28 71 -17
8 -20 13 -10 17 7 3 19 4 26 1 8 -2 22 -4 33 -4z m-63 -32 c7 -7 12 -36 12
-65 0 -51 -1 -53 -28 -53 -43 0 -72 26 -72 65 0 18 7 41 16 49 18 19 55 21 72
4z"/>
<path d="M8147 2888 c-25 -45 -44 -84 -41 -87 6 -6 5 -7 53 83 23 43 40 81 37
83 -2 2 -24 -33 -49 -79z"/>
<path d="M9080 2810 c0 -136 2 -160 15 -160 13 0 15 24 15 160 0 136 -2 160
-15 160 -13 0 -15 -24 -15 -160z"/>
<path d="M9570 2810 c0 -136 2 -160 15 -160 13 0 15 24 15 160 0 136 -2 160
-15 160 -13 0 -15 -24 -15 -160z"/>
<path d="M9687 2963 c-15 -14 -7 -43 12 -43 23 0 34 23 18 39 -13 13 -21 14
-30 4z"/>
<path d="M9767 2963 c-15 -14 -7 -43 12 -43 23 0 34 23 18 39 -13 13 -21 14
-30 4z"/>
<path d="M11500 2830 c0 -127 2 -142 20 -160 24 -24 95 -27 127 -5 19 13 25
13 58 -1 76 -31 135 17 135 111 0 81 -70 127 -143 94 -32 -15 -45 -42 -52
-109 -6 -58 -15 -70 -56 -70 -44 0 -49 15 -49 152 0 121 -1 128 -20 128 -19 0
-20 -7 -20 -140z m282 -7 c31 -28 20 -112 -16 -126 -23 -9 -76 13 -78 31 -3
41 2 85 13 98 16 19 58 18 81 -3z"/>
<path d="M12320 2933 c-1 -21 -3 -93 -7 -160 l-5 -123 26 0 c30 0 30 -1 19
198 -4 92 -9 122 -20 122 -8 0 -13 -13 -13 -37z"/>
<path d="M14730 2830 c0 -186 -5 -180 168 -180 139 0 169 8 190 53 10 22 11
35 2 62 -17 50 -44 65 -117 65 -35 0 -63 2 -63 5 0 3 11 28 25 55 29 56 31 70
11 70 -17 0 -100 -146 -91 -160 3 -6 43 -10 89 -10 50 0 87 -5 94 -12 19 -19
15 -66 -7 -78 -28 -14 -234 -13 -249 2 -8 8 -12 54 -12 140 0 121 -1 128 -20
128 -19 0 -20 -7 -20 -140z"/>
<path d="M17720 2830 c0 -171 5 -180 99 -180 84 0 91 9 91 126 0 87 -2 94 -20
94 -17 0 -19 -8 -22 -87 l-3 -88 -38 -3 c-63 -5 -67 4 -67 149 0 122 -1 129
-20 129 -19 0 -20 -7 -20 -140z"/>
<path d="M19610 2832 c0 -193 -11 -182 196 -182 156 0 164 1 164 19 0 11 -5
23 -11 26 -5 4 -22 31 -36 61 -41 87 -108 135 -168 120 -41 -10 -31 -36 14
-36 26 0 46 -7 64 -24 25 -23 67 -95 67 -116 0 -15 -223 -13 -238 2 -8 8 -12
54 -12 140 0 121 -1 128 -20 128 -19 0 -20 -7 -20 -138z"/>
<path d="M20110 2832 c0 -178 4 -186 99 -178 36 3 76 5 89 5 27 0 154 0 185 0
12 0 54 -2 93 -5 98 -8 104 -1 104 122 0 87 -2 94 -20 94 -17 0 -19 -8 -22
-87 l-3 -88 -51 -3 c-33 -2 -55 2 -62 10 -6 8 -12 47 -14 88 -2 62 -6 75 -20
78 -16 3 -18 -6 -18 -72 0 -54 -4 -79 -16 -90 -19 -19 -104 -22 -122 -4 -7 7
-12 43 -12 90 0 71 -2 78 -20 78 -18 0 -20 -7 -20 -74 0 -54 -4 -79 -16 -90
-18 -19 -85 -21 -102 -4 -8 8 -12 54 -12 140 0 121 -1 128 -20 128 -19 0 -20
-7 -20 -138z"/>
<path d="M21208 2948 c-28 -43 -78 -148 -71 -148 10 0 97 160 90 166 -2 3 -11
-6 -19 -18z"/>
<path d="M21221 2895 c-58 -105 -58 -105 43 -105 64 0 88 -4 100 -16 21 -21
20 -47 -3 -68 -15 -14 -38 -16 -152 -14 l-134 3 -3 88 c-2 78 -5 87 -22 87
-18 0 -20 -9 -22 -132 l-3 -133 -32 -10 c-43 -12 -46 -45 -4 -45 36 0 81 41
81 75 l0 25 146 0 146 0 29 29 c20 20 29 39 29 61 0 22 -9 41 -29 61 -26 26
-36 29 -90 29 -35 0 -61 4 -61 10 0 6 11 33 25 60 29 58 29 56 11 63 -10 4
-27 -17 -55 -68z"/>
<path d="M6132 2885 c-23 -41 -42 -77 -42 -80 0 -3 31 -5 69 -5 81 0 115 -11
131 -40 9 -17 8 -26 -5 -46 -15 -23 -19 -24 -143 -24 -86 0 -132 4 -140 12 -7
7 -12 42 -12 85 0 66 -2 73 -20 73 -18 0 -20 -7 -20 -73 0 -43 -5 -78 -12 -85
-7 -7 -36 -12 -65 -12 -65 0 -73 12 -73 109 0 56 -3 71 -15 71 -12 0 -15 -15
-15 -78 0 -86 -8 -102 -52 -102 -35 0 -48 24 -48 89 0 39 -4 51 -15 51 -12 0
-15 -13 -15 -59 0 -66 -13 -84 -57 -79 -27 3 -28 6 -37 71 -6 46 -13 67 -22
67 -10 0 -14 -15 -14 -58 0 -65 -11 -82 -52 -82 -38 0 -48 24 -48 114 l0 76
-66 0 c-59 0 -68 -3 -95 -29 -24 -24 -29 -38 -29 -76 0 -51 20 -99 45 -109 27
-10 90 -7 102 5 8 8 20 6 43 -6 22 -11 44 -15 69 -11 20 4 44 6 54 6 9 -1 37
-1 62 -1 25 0 54 0 65 0 11 0 40 0 65 0 25 0 53 0 63 0 9 0 44 -2 77 -5 44 -4
65 -1 80 9 17 13 22 13 41 0 18 -11 53 -14 164 -11 135 3 143 4 161 27 28 34
25 96 -6 126 -21 22 -33 25 -90 25 -36 0 -65 2 -65 5 0 3 11 28 25 55 28 56
31 70 12 70 -7 0 -32 -34 -55 -75z m-752 -99 c0 -57 -12 -79 -51 -91 -12 -4
-30 0 -44 9 -20 13 -25 25 -25 61 0 56 19 75 76 75 l44 0 0 -54z"/>
<path d="M8217 2938 c-35 -58 -67 -117 -67 -126 0 -5 38 -11 84 -14 90 -5 116
-16 116 -53 0 -46 -26 -55 -163 -55 -149 0 -147 -2 -147 114 l0 76 -66 0 c-59
0 -68 -3 -95 -29 -24 -24 -29 -38 -29 -76 0 -51 20 -99 45 -109 27 -10 90 -7
102 5 8 8 20 6 43 -6 26 -14 56 -16 167 -13 134 3 135 3 159 31 33 39 31 81
-5 118 -26 26 -36 29 -90 29 -35 0 -61 4 -61 10 0 6 11 33 25 60 29 58 30 60
10 60 -8 0 -21 -10 -28 -22z m-207 -152 c0 -57 -12 -79 -51 -91 -12 -4 -30 0
-44 9 -20 13 -25 25 -25 61 0 56 19 75 76 75 l44 0 0 -54z"/>
<path d="M16500 2885 c-22 -42 -38 -80 -35 -85 3 -6 43 -10 89 -10 50 0 87 -5
94 -12 19 -19 15 -66 -7 -78 -28 -15 -254 -13 -269 2 -7 7 -12 43 -12 90 0 71
-2 78 -20 78 -18 0 -20 -7 -20 -79 0 -93 -8 -103 -77 -99 l-48 3 -3 88 c-3 79
-5 87 -22 87 -18 0 -20 -7 -20 -71 0 -78 -11 -109 -40 -109 -44 0 -50 10 -50
76 0 57 -2 64 -20 64 -16 0 -19 -8 -22 -61 -3 -69 -17 -86 -61 -75 -26 6 -27
9 -27 71 0 58 -2 65 -20 65 -18 0 -20 -7 -20 -58 0 -64 -11 -82 -51 -82 -47 0
-59 22 -59 111 l0 79 -66 0 c-59 0 -68 -3 -95 -29 -55 -55 -34 -168 36 -191
28 -9 41 -9 66 4 28 14 34 14 61 0 21 -11 44 -14 72 -10 22 3 49 6 59 5 9 0
37 0 62 0 25 0 54 0 65 0 11 0 40 0 65 0 25 0 53 0 63 0 9 1 41 -2 70 -5 38
-4 59 -2 75 9 20 13 26 13 42 1 25 -19 269 -19 305 -1 38 19 54 60 40 102 -17
50 -44 65 -117 65 -35 0 -63 2 -63 5 0 3 11 28 25 55 29 56 31 70 11 70 -8 0
-33 -34 -56 -75z m-760 -109 c0 -62 -1 -64 -30 -75 -52 -18 -80 7 -80 70 0 45
25 69 72 69 l38 0 0 -64z"/>
<path d="M18160 2885 c-22 -42 -38 -80 -35 -85 3 -6 43 -10 89 -10 90 0 106
-8 106 -52 0 -41 -26 -49 -152 -46 l-113 3 -3 88 c-2 78 -5 87 -22 87 -18 0
-20 -9 -22 -132 l-3 -133 -32 -10 c-43 -12 -46 -45 -4 -45 36 0 81 41 81 75
l0 25 128 0 c101 0 132 3 150 16 33 23 45 60 32 100 -17 49 -44 64 -117 64
-35 0 -63 2 -63 5 0 3 11 28 25 55 29 56 31 70 11 70 -8 0 -33 -34 -56 -75z"/>
<path d="M20430 2945 c-15 -18 -5 -35 21 -35 12 0 19 7 19 19 0 24 -25 34 -40
16z"/>
<path d="M20511 2946 c-16 -19 -6 -36 20 -36 15 0 20 6 17 22 -4 27 -21 33
-37 14z"/>
<path d="M6964 2935 c-4 -10 -1 -21 7 -26 20 -12 34 -5 34 17 0 24 -33 31 -41
9z"/>
<path d="M7047 2936 c-7 -17 18 -40 33 -31 5 3 10 15 10 26 0 23 -35 27 -43 5z"/>
<path d="M9454 2939 c-10 -17 23 -46 37 -32 7 7 9 19 6 27 -7 18 -33 21 -43 5z"/>
<path d="M10348 2927 c-29 -17 -38 -28 -38 -50 0 -25 3 -27 26 -21 l26 7 -4
-107 -3 -106 32 0 33 0 0 150 c0 169 0 170 -72 127z"/>
<path d="M10497 2943 c-3 -5 -8 -30 -11 -58 -4 -27 -10 -60 -13 -72 -6 -28 26
-38 71 -22 42 15 66 1 66 -40 0 -48 -45 -68 -81 -35 -15 14 -21 14 -44 1 l-27
-14 32 -26 c48 -41 131 -35 167 12 20 26 16 105 -6 132 -15 19 -28 24 -65 23
-48 -1 -53 4 -36 37 8 15 22 19 60 19 47 0 50 2 50 25 0 25 -1 25 -79 25 -44
0 -82 -3 -84 -7z"/>
<path d="M15980 2934 c-10 -11 -10 -17 0 -28 15 -19 40 -10 40 14 0 24 -25 33
-40 14z"/>
<path d="M16060 2934 c-10 -11 -10 -17 0 -28 15 -19 40 -10 40 14 0 24 -25 33
-40 14z"/>
<path d="M17864 2935 c-4 -9 -2 -21 4 -27 15 -15 44 -1 40 19 -4 23 -36 29
-44 8z"/>
<path d="M20634 2935 c-4 -9 -2 -21 4 -27 15 -15 44 -1 40 19 -4 23 -36 29
-44 8z"/>
<path d="M5595 2930 c-9 -15 4 -30 26 -30 12 0 19 7 19 20 0 21 -33 29 -45 10z"/>
<path d="M5675 2930 c-9 -15 4 -30 26 -30 12 0 19 7 19 20 0 21 -33 29 -45 10z"/>
<path d="M3709 2851 c-24 -24 -29 -38 -29 -76 0 -51 20 -99 45 -109 27 -10 90
-7 102 5 8 8 19 6 41 -5 36 -19 75 -21 103 -5 14 7 30 7 55 -1 27 -9 42 -9 65
0 23 10 35 10 59 0 24 -10 36 -10 60 0 43 18 50 37 50 134 0 79 -2 86 -20 86
-17 0 -19 -8 -22 -86 -2 -70 -6 -89 -20 -98 -34 -21 -53 4 -56 73 -3 53 -6 61
-22 61 -18 0 -20 -7 -20 -59 0 -66 -15 -87 -55 -77 -23 6 -25 10 -25 71 0 58
-2 65 -20 65 -18 0 -20 -7 -20 -58 0 -66 -11 -82 -57 -82 -43 0 -53 21 -53
114 l0 76 -66 0 c-59 0 -68 -3 -95 -29z m131 -65 c0 -57 -12 -79 -51 -91 -12
-4 -30 0 -44 9 -20 13 -25 25 -25 61 0 56 19 75 76 75 l44 0 0 -54z"/>
<path d="M4359 2851 c-25 -25 -29 -37 -29 -84 0 -93 65 -141 139 -102 40 20
54 56 48 119 -3 38 -11 55 -31 73 -39 33 -90 31 -127 -6z m103 -28 c12 -10 18
-30 18 -56 0 -67 -49 -99 -92 -60 -21 19 -25 102 -6 121 17 17 58 15 80 -5z"/>
<path d="M6525 2868 c-35 -20 -44 -41 -45 -100 0 -78 26 -109 98 -116 54 -5
59 -10 42 -43 -8 -15 -22 -19 -60 -19 -44 0 -50 -2 -50 -21 0 -20 4 -21 60
-17 91 6 95 14 95 159 0 120 0 121 -28 145 -31 26 -78 31 -112 12z m87 -45
c13 -12 18 -31 18 -75 l0 -58 -39 0 c-52 0 -86 38 -77 88 3 19 10 40 17 48 16
19 58 18 81 -3z"/>
<path d="M6775 2868 c-35 -20 -44 -41 -45 -100 0 -78 26 -109 98 -116 54 -5
59 -10 42 -43 -8 -15 -22 -19 -60 -19 -43 0 -50 -3 -50 -20 0 -17 7 -20 48
-20 66 0 95 18 106 63 9 37 10 37 62 37 76 0 84 12 84 121 0 82 -2 89 -20 89
-17 0 -19 -8 -22 -82 l-3 -83 -46 -3 -47 -3 -4 72 c-3 63 -7 74 -31 95 -31 26
-79 31 -112 12z m87 -45 c13 -12 18 -31 18 -75 l0 -58 -39 0 c-52 0 -86 38
-77 88 3 19 10 40 17 48 16 19 58 18 81 -3z"/>
<path d="M8479 2851 c-24 -24 -29 -38 -29 -76 0 -51 20 -99 45 -109 27 -10 90
-7 102 5 8 8 19 6 41 -5 45 -23 117 -21 142 4 17 17 20 33 20 105 0 78 -2 85
-20 85 -18 0 -20 -7 -20 -73 0 -84 -8 -97 -62 -97 -49 0 -58 18 -58 114 l0 76
-66 0 c-59 0 -68 -3 -95 -29z m131 -65 c0 -57 -12 -79 -51 -91 -12 -4 -30 0
-44 9 -20 13 -25 25 -25 61 0 56 19 75 76 75 l44 0 0 -54z"/>
<path d="M9210 2860 c0 -16 7 -20 33 -20 55 0 71 -19 72 -86 l0 -59 -67 -3
c-60 -3 -68 -5 -68 -22 0 -19 8 -20 144 -20 180 0 176 -3 176 121 0 82 -2 89
-20 89 -17 0 -19 -8 -22 -82 l-3 -83 -50 0 -50 0 -3 67 c-3 61 -6 69 -33 92
-40 34 -109 37 -109 6z"/>
<path d="M9895 2868 c-35 -20 -44 -41 -45 -100 0 -78 26 -109 98 -116 55 -5
65 -18 36 -46 -9 -10 -33 -16 -60 -16 -38 0 -44 -3 -44 -21 0 -20 4 -21 60
-17 91 6 95 14 95 159 0 120 0 121 -28 145 -31 26 -78 31 -112 12z m87 -45
c13 -12 18 -31 18 -75 l0 -58 -39 0 c-52 0 -86 38 -77 88 3 19 10 40 17 48 16
19 58 18 81 -3z"/>
<path d="M10790 2866 c0 -27 22 -76 35 -76 13 0 35 49 35 76 0 27 -19 13 -26
-18 l-7 -33 -10 33 c-10 32 -27 44 -27 18z"/>
<path d="M11075 2868 c-35 -20 -44 -41 -45 -103 -2 -98 -15 -157 -40 -177 -32
-26 -86 -23 -115 7 -24 23 -28 40 -29 115 -1 24 -6 36 -17 38 -20 4 -29 -25
-24 -83 5 -59 28 -99 69 -119 43 -20 79 -20 122 0 52 25 68 63 68 170 1 102
11 124 57 124 l29 0 0 -95 c0 -88 1 -95 20 -95 19 0 20 7 20 115 l0 115 -47 0
c-27 0 -57 -6 -68 -12z"/>
<path d="M11295 2869 c-33 -16 -45 -44 -46 -105 -2 -74 25 -104 100 -112 54
-5 64 -18 35 -46 -9 -10 -33 -16 -60 -16 -38 0 -44 -3 -44 -21 0 -20 4 -21 61
-17 93 7 102 21 97 166 -3 110 -4 114 -31 138 -30 25 -76 31 -112 13z m87 -46
c13 -12 18 -31 18 -75 l0 -58 -38 0 c-50 0 -76 27 -76 79 0 22 6 46 13 55 17
21 59 20 83 -1z"/>
<path d="M12030 2860 c0 -15 7 -20 29 -20 42 0 61 -24 61 -75 0 -59 -18 -75
-86 -75 -47 0 -54 -2 -54 -20 0 -18 7 -20 55 -20 76 0 111 20 126 70 24 79
-25 160 -97 160 -27 0 -34 -4 -34 -20z"/>
<path d="M12450 2860 c0 -16 7 -20 31 -20 58 0 69 -14 69 -85 l0 -65 -70 0
c-63 0 -70 -2 -70 -20 0 -19 7 -20 143 -20 106 0 148 4 163 14 17 12 22 12 39
0 25 -18 105 -18 132 1 19 13 25 13 58 -1 76 -31 135 17 135 111 0 81 -70 127
-143 94 -33 -15 -48 -44 -54 -108 -7 -63 -13 -71 -63 -71 -52 0 -60 13 -60
103 0 68 -2 78 -16 73 -9 -3 -18 -6 -20 -6 -2 0 -4 -33 -4 -73 0 -43 -5 -78
-12 -85 -7 -7 -33 -12 -59 -12 l-46 0 -6 67 c-4 59 -9 71 -36 95 -40 36 -111
41 -111 8z m572 -37 c20 -18 24 -73 8 -102 -13 -26 -35 -32 -70 -20 -28 10
-30 14 -30 64 0 41 4 57 18 64 25 15 53 13 74 -6z"/>
<path d="M13169 2851 c-55 -55 -34 -168 36 -191 28 -9 41 -9 66 4 27 14 34 14
60 1 35 -19 294 -21 333 -4 28 13 56 64 56 104 0 41 -26 81 -64 99 -51 24
-176 20 -176 -6 0 -6 -12 -19 -26 -31 -24 -18 -26 -25 -22 -79 l4 -58 -37 0
c-58 0 -69 18 -69 111 l0 79 -66 0 c-59 0 -68 -3 -95 -29z m121 -75 c0 -62 -1
-64 -30 -75 -52 -18 -80 7 -80 70 0 45 25 69 72 69 l38 0 0 -64z m367 38 c21
-21 24 -32 19 -62 -6 -38 -28 -62 -57 -62 -13 0 -18 12 -21 57 -4 43 -10 61
-28 75 l-22 18 41 0 c32 0 48 -6 68 -26z m-116 -4 c15 -9 19 -22 19 -65 0 -53
-1 -55 -28 -55 -43 0 -72 26 -72 65 0 54 36 78 81 55z"/>
<path d="M13949 2851 c-55 -55 -34 -168 36 -191 28 -9 41 -9 66 4 27 14 34 14
60 1 38 -20 113 -19 133 1 12 12 16 37 16 110 0 87 -2 94 -20 94 -17 0 -19 -8
-22 -87 l-3 -88 -36 -3 c-57 -5 -69 15 -69 109 l0 79 -66 0 c-59 0 -68 -3 -95
-29z m121 -75 c0 -62 -1 -64 -30 -75 -52 -18 -80 7 -80 70 0 45 25 69 72 69
l38 0 0 -64z"/>
<path d="M14440 2860 c0 -16 7 -20 33 -20 45 0 67 -26 67 -78 0 -56 -19 -72
-86 -72 -47 0 -54 -2 -54 -20 0 -18 7 -20 55 -20 72 0 110 20 125 65 28 84
-21 165 -101 165 -32 0 -39 -3 -39 -20z"/>
<path d="M15179 2851 c-55 -55 -34 -168 36 -191 28 -9 41 -9 66 4 27 14 34 14
60 1 15 -8 51 -15 79 -15 41 0 56 5 75 25 23 22 25 32 25 110 0 78 -2 85 -20
85 -18 0 -20 -7 -20 -78 0 -47 -5 -83 -12 -90 -18 -18 -94 -15 -112 4 -12 11
-16 36 -16 95 l0 79 -66 0 c-59 0 -68 -3 -95 -29z m121 -75 c0 -62 -1 -64 -30
-75 -52 -18 -80 7 -80 70 0 45 25 69 72 69 l38 0 0 -64z"/>
<path d="M17019 2851 c-55 -55 -34 -168 36 -191 28 -9 41 -9 66 4 27 14 34 14
60 1 35 -19 294 -21 333 -4 28 13 56 64 56 104 0 41 -26 81 -64 99 -51 24
-176 20 -176 -6 0 -6 -12 -19 -26 -31 -24 -18 -26 -25 -22 -79 l4 -58 -37 0
c-58 0 -69 18 -69 111 l0 79 -66 0 c-59 0 -68 -3 -95 -29z m121 -75 c0 -62 -1
-64 -30 -75 -52 -18 -80 7 -80 70 0 45 25 69 72 69 l38 0 0 -64z m367 38 c21
-21 24 -32 19 -62 -6 -38 -28 -62 -57 -62 -13 0 -18 12 -21 57 -4 43 -10 61
-28 75 l-22 18 41 0 c32 0 48 -6 68 -26z m-116 -4 c15 -9 19 -22 19 -65 0 -53
-1 -55 -28 -55 -43 0 -72 26 -72 65 0 54 36 78 81 55z"/>
<path d="M18598 2850 c-29 -29 -30 -34 -26 -92 4 -48 9 -65 28 -80 33 -27 65
-32 100 -15 27 14 33 14 61 0 20 -10 43 -13 67 -9 20 4 47 7 60 6 67 -2 89 -2
112 -1 14 1 42 -1 62 -5 31 -5 41 -2 62 20 24 23 26 32 26 116 0 83 -1 90 -20
90 -18 0 -20 -7 -20 -85 0 -74 -2 -86 -20 -95 -14 -8 -26 -8 -40 0 -17 9 -20
21 -20 70 0 53 -2 60 -20 60 -16 0 -19 -8 -22 -61 -3 -69 -22 -94 -55 -73 -13
8 -19 27 -21 73 -3 53 -6 61 -22 61 -18 0 -20 -7 -20 -58 0 -64 -11 -82 -51
-82 -47 0 -59 22 -59 111 l0 79 -66 0 c-60 0 -68 -3 -96 -30z m122 -75 c0 -62
-1 -65 -27 -72 -55 -14 -83 8 -83 66 0 47 24 71 72 71 l38 0 0 -65z"/>
<path d="M19265 2868 c-35 -20 -44 -41 -45 -100 0 -46 5 -62 24 -85 20 -23 32
-28 71 -28 66 0 95 34 95 111 0 48 -4 60 -29 85 -32 31 -79 38 -116 17z m87
-45 c23 -21 24 -89 1 -115 -20 -22 -42 -23 -71 -2 -29 20 -32 107 -4 123 25
15 53 13 74 -6z"/>
<path d="M20795 2868 c-35 -20 -44 -41 -45 -100 0 -46 5 -62 24 -85 20 -23 32
-28 71 -28 66 0 95 34 95 111 0 48 -4 60 -29 85 -32 31 -79 38 -116 17z m87
-45 c38 -34 14 -133 -31 -133 -37 0 -61 29 -61 75 0 68 48 98 92 58z"/>
<path d="M3580 2752 c0 -130 -11 -162 -56 -162 -17 0 -24 -5 -24 -20 0 -30 54
-27 85 5 24 23 25 29 25 160 0 113 -2 135 -15 135 -12 0 -15 -20 -15 -118z"/>
<path d="M4620 2752 c0 -130 -11 -162 -56 -162 -17 0 -24 -5 -24 -20 0 -30 54
-27 85 5 24 23 25 29 25 160 0 113 -2 135 -15 135 -12 0 -15 -20 -15 -118z"/>
<path d="M7750 2752 c0 -130 -11 -162 -56 -162 -17 0 -24 -5 -24 -20 0 -30 54
-27 85 5 24 23 25 29 25 160 0 113 -2 135 -15 135 -12 0 -15 -20 -15 -118z"/>
<path d="M9730 2752 c0 -130 -11 -162 -56 -162 -17 0 -24 -5 -24 -20 0 -23 37
-28 71 -9 36 19 44 58 41 187 -3 98 -6 122 -18 122 -11 0 -14 -22 -14 -118z"/>
<path d="M10139 2768 c-1 -152 -9 -178 -55 -178 -17 0 -24 -6 -24 -20 0 -25
45 -28 78 -5 31 22 37 59 34 190 -3 92 -6 115 -18 115 -11 0 -14 -20 -15 -102z"/>
<path d="M13810 2742 c0 -136 -5 -152 -47 -152 -16 0 -23 -6 -23 -20 0 -15 7
-20 26 -20 72 0 94 47 94 205 l0 115 -25 0 -25 0 0 -128z"/>
<path d="M16880 2742 c0 -136 -5 -152 -47 -152 -16 0 -23 -6 -23 -20 0 -15 7
-20 26 -20 72 0 94 47 94 205 l0 115 -25 0 -25 0 0 -128z"/>
<path d="M18460 2742 c0 -136 -5 -152 -47 -152 -16 0 -23 -6 -23 -20 0 -15 7
-20 26 -20 73 0 94 43 94 200 l0 120 -25 0 -25 0 0 -128z"/>
<path d="M19500 2742 c0 -136 -5 -152 -47 -152 -16 0 -23 -6 -23 -20 0 -15 7
-20 26 -20 73 0 94 43 94 200 l0 120 -25 0 -25 0 0 -128z"/>
<path d="M8967 2741 c-3 -16 -9 -40 -13 -55 -4 -19 -2 -26 9 -26 9 0 17 14 21
38 4 20 9 45 12 55 3 10 0 17 -9 17 -8 0 -17 -13 -20 -29z"/>
<path d="M12763 2603 c-21 -8 -15 -43 6 -43 11 0 23 5 27 11 8 14 -17 38 -33
32z"/>
<path d="M16363 2603 c-21 -8 -15 -43 6 -43 11 0 23 5 27 11 8 14 -17 38 -33
32z"/>
<path d="M19849 2594 c-10 -12 -9 -18 3 -31 19 -18 38 -10 38 17 0 24 -25 33
-41 14z"/>
<path d="M20230 2594 c-11 -12 -11 -18 2 -30 14 -14 17 -14 32 1 13 13 14 20
5 31 -15 18 -24 18 -39 -2z"/>
<path d="M20323 2603 c-18 -6 -16 -40 1 -46 8 -3 20 1 27 9 10 12 9 18 -2 28
-8 8 -20 12 -26 9z"/>
<path d="M4880 2580 c0 -13 7 -20 20 -20 13 0 20 7 20 20 0 13 -7 20 -20 20
-13 0 -20 -7 -20 -20z"/>
<path d="M4955 2590 c-9 -15 4 -30 26 -30 12 0 19 7 19 20 0 21 -33 29 -45 10z"/>
<path d="M5900 2580 c0 -13 7 -20 20 -20 13 0 20 7 20 20 0 13 -7 20 -20 20
-13 0 -20 -7 -20 -20z"/>
<path d="M5980 2580 c0 -16 5 -21 23 -18 12 2 22 10 22 18 0 8 -10 16 -22 18
-18 3 -23 -2 -23 -18z"/>
<path d="M12665 2590 c-9 -15 4 -30 26 -30 12 0 19 7 19 20 0 21 -33 29 -45
10z"/>
<path d="M14203 2589 c-16 -16 -5 -39 19 -39 14 0 19 6 16 22 -4 25 -19 33
-35 17z"/>
<path d="M15410 2581 c0 -24 25 -34 40 -16 15 18 5 35 -21 35 -12 0 -19 -7
-19 -19z"/>
<path d="M15494 2585 c-8 -19 12 -36 33 -28 19 7 12 37 -10 41 -9 2 -20 -4
-23 -13z"/>
<path d="M16265 2590 c-9 -15 4 -30 26 -30 12 0 19 7 19 20 0 21 -33 29 -45
10z"/>
<path d="M19764 2589 c-3 -6 1 -18 9 -27 13 -12 19 -13 31 -3 8 7 12 19 9 27
-6 17 -39 19 -49 3z"/>
<path d="M4915 2530 c-9 -15 14 -40 31 -33 22 8 18 43 -5 43 -11 0 -23 -5 -26
-10z"/>
<path d="M19804 2529 c-8 -14 21 -43 35 -35 6 4 11 16 11 27 0 21 -34 27 -46
8z"/>
<path d="M13048 2408 c-7 -18 2 -38 16 -38 18 0 35 21 29 36 -6 17 -39 18 -45
2z"/>
<path d="M13013 2349 c-16 -16 -5 -39 19 -39 14 0 19 6 16 22 -4 25 -19 33
-35 17z"/>
<path d="M13093 2349 c-16 -16 -5 -39 19 -39 14 0 19 6 16 22 -4 25 -19 33
-35 17z"/>
<path d="M13990 2344 c-10 -11 -10 -17 0 -28 15 -19 40 -10 40 14 0 24 -25 33
-40 14z"/>
<path d="M11328 2328 c-28 -43 -78 -148 -71 -148 10 0 96 160 90 166 -2 3 -11
-6 -19 -18z"/>
<path d="M11341 2275 c-23 -41 -41 -81 -41 -89 0 -12 18 -16 92 -18 91 -3 93
-4 102 -30 8 -22 6 -32 -9 -48 -16 -18 -30 -20 -145 -20 l-128 0 -4 71 c-3 63
-7 74 -31 95 -55 47 -139 22 -157 -46 -24 -90 22 -160 106 -160 31 0 44 -4 44
-14 0 -28 -30 -46 -76 -46 -37 0 -44 -3 -44 -20 0 -18 7 -20 55 -20 46 0 60 4
80 25 14 13 25 36 25 50 l0 25 136 0 136 0 29 29 c20 20 29 39 29 61 0 22 -9
41 -29 61 -26 26 -36 29 -90 29 -35 0 -61 4 -61 10 0 6 11 33 25 60 29 58 29
56 11 63 -10 4 -27 -17 -55 -68z m-189 -72 c13 -12 18 -31 18 -75 l0 -58 -33
0 c-55 0 -77 23 -77 80 0 36 5 52 18 59 25 15 53 13 74 -6z"/>
<path d="M12720 2190 l0 -160 25 0 25 0 0 160 0 160 -25 0 -25 0 0 -160z"/>
<path d="M13263 2343 c-7 -3 -13 -13 -13 -23 0 -19 17 -30 38 -23 6 3 12 10
12 18 0 17 -22 33 -37 28z"/>
<path d="M14160 2212 c0 -167 6 -182 78 -182 26 0 57 7 69 15 18 13 25 13 61
-2 77 -30 132 17 132 112 0 85 -74 129 -150 90 -32 -16 -50 -62 -50 -126 0
-38 -12 -49 -54 -49 -41 0 -46 17 -46 152 0 121 -1 128 -20 128 -19 0 -20 -7
-20 -138z m282 -9 c21 -19 24 -81 6 -105 -16 -20 -35 -24 -70 -15 -26 7 -28
11 -28 62 0 41 4 56 18 64 25 15 53 13 74 -6z"/>
<path d="M15283 2267 c-24 -46 -43 -87 -43 -90 0 -4 40 -7 88 -7 100 0 112 -7
112 -62 l0 -39 -132 3 -133 3 -3 88 c-2 78 -5 87 -22 87 -18 0 -20 -9 -22
-132 l-3 -133 -32 -10 c-43 -12 -46 -45 -4 -45 36 0 81 41 81 75 l0 25 219 0
c186 0 222 2 235 16 12 12 16 37 16 110 0 87 -2 94 -20 94 -17 0 -19 -8 -22
-87 l-3 -88 -55 0 -55 0 -6 49 c-7 68 -32 86 -115 86 -35 0 -64 2 -64 5 0 3
14 32 30 65 35 70 35 70 13 70 -12 0 -32 -27 -60 -83z"/>
<path d="M9987 2334 c-16 -16 -7 -44 14 -44 15 0 20 5 17 22 -3 22 -19 33 -31
22z"/>
<path d="M12614 2315 c-4 -9 -2 -21 4 -27 15 -15 44 -1 40 19 -4 23 -36 29
-44 8z"/>
<path d="M16704 2315 c-4 -9 -2 -21 4 -27 15 -15 44 -1 40 19 -4 23 -36 29
-44 8z"/>
<path d="M12117 2283 c-15 -14 -7 -43 12 -43 23 0 34 23 18 39 -13 13 -21 14
-30 4z"/>
<path d="M9470 2267 c0 -22 35 -97 45 -97 16 0 38 62 32 87 -2 13 -8 9 -18
-17 l-15 -35 -12 33 c-6 17 -16 32 -21 32 -6 0 -11 -1 -11 -3z"/>
<path d="M13410 2267 c0 -21 35 -97 45 -97 7 0 20 21 29 47 19 55 19 53 6 53
-5 0 -16 -15 -23 -32 l-13 -33 -12 33 c-6 17 -16 32 -21 32 -6 0 -11 -1 -11
-3z"/>
<path d="M8359 2231 c-55 -55 -34 -168 36 -191 28 -9 41 -9 66 4 27 14 34 14
60 1 46 -24 115 -19 144 10 23 22 25 32 25 110 0 78 -2 85 -20 85 -18 0 -20
-7 -20 -78 0 -89 -8 -102 -61 -102 -58 0 -69 18 -69 111 l0 79 -66 0 c-59 0
-68 -3 -95 -29z m121 -75 c0 -62 -1 -64 -30 -75 -52 -18 -80 7 -80 70 0 45 25
69 72 69 l38 0 0 -64z"/>
<path d="M8799 2231 c-55 -55 -34 -168 36 -191 28 -9 41 -9 66 4 27 14 34 14
60 1 35 -19 294 -21 333 -4 28 13 56 64 56 104 0 41 -26 81 -64 99 -51 24
-176 20 -176 -6 0 -6 -12 -19 -26 -31 -24 -18 -26 -25 -22 -79 l4 -58 -37 0
c-58 0 -69 18 -69 111 l0 79 -66 0 c-59 0 -68 -3 -95 -29z m121 -75 c0 -62 -1
-64 -30 -75 -52 -18 -80 7 -80 70 0 45 25 69 72 69 l38 0 0 -64z m367 38 c21
-21 24 -32 19 -62 -6 -38 -28 -62 -57 -62 -13 0 -18 12 -21 57 -4 43 -10 61
-28 75 l-22 18 41 0 c32 0 48 -6 68 -26z m-116 -4 c15 -9 19 -22 19 -65 0 -53
-1 -55 -28 -55 -43 0 -72 26 -72 65 0 54 36 78 81 55z"/>
<path d="M9758 2245 c-34 -19 -48 -66 -48 -162 0 -39 -3 -79 -6 -88 -10 -26
-62 -48 -100 -40 -47 8 -64 38 -64 112 0 61 -1 63 -26 63 -27 0 -27 0 -22 -65
7 -83 32 -126 84 -144 78 -27 152 9 173 85 6 22 11 74 11 116 0 82 9 98 59 98
20 0 21 -6 21 -96 l0 -96 73 6 c91 7 99 7 173 0 58 -5 62 -4 83 22 18 22 21
40 21 110 0 77 -2 84 -20 84 -18 0 -20 -7 -20 -78 0 -89 -8 -102 -59 -102 -55
0 -60 8 -63 95 -3 72 -5 80 -23 80 -18 0 -20 -8 -23 -82 -3 -78 -4 -83 -26
-89 -13 -3 -35 -4 -47 -2 -23 3 -24 7 -27 96 l-3 92 -47 0 c-26 -1 -59 -7 -74
-15z"/>
<path d="M10448 2244 c-18 -9 -31 -28 -38 -54 -24 -90 22 -160 106 -160 31 0
44 -4 44 -14 0 -28 -30 -46 -76 -46 -37 0 -44 -3 -44 -20 0 -18 7 -20 55 -20
46 0 60 4 80 25 14 13 25 36 25 50 l0 25 145 0 c160 0 192 8 213 55 28 61 5
132 -52 159 -51 24 -176 20 -176 -6 0 -6 -12 -19 -26 -31 -24 -18 -26 -25 -22
-79 l4 -58 -42 0 -42 0 -4 71 c-3 63 -7 74 -31 95 -32 28 -78 31 -119 8z m94
-41 c13 -12 18 -31 18 -75 l0 -58 -37 0 c-52 0 -73 23 -73 81 0 35 5 51 18 58
25 15 53 13 74 -6z m365 -9 c21 -21 24 -32 19 -62 -6 -38 -28 -62 -57 -62 -13
0 -18 12 -21 57 -4 43 -10 61 -28 75 l-22 18 41 0 c32 0 48 -6 68 -26z m-116
-4 c15 -9 19 -22 19 -65 0 -53 -1 -55 -28 -55 -43 0 -72 26 -72 65 0 54 36 78
81 55z"/>
<path d="M11718 2244 c-18 -9 -31 -28 -38 -54 -24 -90 22 -160 106 -160 31 0
44 -4 44 -14 0 -28 -30 -46 -76 -46 -37 0 -44 -3 -44 -20 0 -18 7 -20 55 -20
47 0 60 4 81 25 25 25 26 29 22 141 -3 113 -4 116 -31 140 -32 28 -78 31 -119
8z m94 -41 c13 -12 18 -31 18 -75 l0 -58 -33 0 c-55 0 -77 23 -77 80 0 36 5
52 18 59 25 15 53 13 74 -6z"/>
<path d="M12360 2240 c0 -16 7 -20 31 -20 58 0 69 -14 69 -85 l0 -65 -70 0
c-63 0 -70 -2 -70 -20 0 -19 7 -20 154 -20 192 0 186 -4 186 126 0 87 -2 94
-20 94 -17 0 -19 -8 -22 -87 l-3 -88 -51 -3 -51 -3 -6 68 c-4 59 -9 71 -36 95
-40 36 -111 41 -111 8z"/>
<path d="M12999 2231 c-24 -24 -29 -38 -29 -76 0 -25 5 -55 11 -66 10 -19 8
-20 -38 -17 l-48 3 -3 88 c-2 78 -5 87 -22 87 -18 0 -20 -9 -22 -132 l-3 -133
-32 -10 c-43 -12 -46 -45 -4 -45 36 0 81 41 81 75 l0 25 104 0 c98 0 106 2
135 26 29 24 31 31 31 89 0 58 -2 65 -31 89 -43 36 -91 35 -130 -3z m105 -27
c10 -9 16 -33 16 -59 0 -37 -4 -47 -26 -62 -24 -15 -29 -15 -53 -2 -21 12 -27
23 -29 58 -5 68 50 107 92 65z"/>
<path d="M13698 2245 c-34 -19 -48 -66 -48 -162 0 -39 -3 -79 -6 -88 -10 -26
-62 -48 -100 -40 -47 8 -64 38 -64 112 0 61 -1 63 -25 63 -24 0 -25 -3 -25
-52 1 -74 30 -135 74 -153 46 -19 80 -19 123 2 52 24 73 77 73 185 0 93 8 108
59 108 20 0 21 -6 21 -95 l0 -95 129 0 c125 0 131 1 160 26 29 24 31 31 31 89
0 58 -2 65 -31 89 -69 58 -159 13 -159 -79 0 -25 5 -55 11 -66 10 -19 7 -20
-43 -17 l-53 3 -3 93 -3 92 -47 0 c-26 -1 -59 -7 -74 -15z m346 -41 c10 -9 16
-33 16 -59 0 -37 -4 -47 -26 -62 -24 -15 -29 -15 -53 -2 -21 12 -27 23 -29 58
-5 68 50 107 92 65z"/>
<path d="M14908 2245 c-34 -19 -48 -66 -48 -167 0 -64 -3 -81 -20 -98 -27 -27
-65 -35 -101 -20 -40 17 -49 37 -49 109 0 58 -1 61 -25 61 -24 0 -25 -3 -25
-52 1 -131 92 -201 197 -151 52 24 73 77 73 185 0 93 8 108 59 108 20 0 21 -6
21 -95 0 -88 1 -95 20 -95 19 0 20 7 20 115 l0 115 -47 0 c-27 -1 -60 -7 -75
-15z"/>
<path d="M15813 2245 c-29 -20 -46 -77 -38 -125 9 -55 52 -90 111 -90 31 0 44
-4 44 -14 0 -28 -30 -46 -76 -46 -37 0 -44 -3 -44 -20 0 -18 7 -20 55 -20 46
0 60 4 80 25 24 23 25 31 25 135 0 110 0 112 -29 141 -34 33 -91 40 -128 14z
m99 -42 c13 -12 18 -31 18 -75 l0 -58 -33 0 c-55 0 -77 23 -77 80 0 36 5 52
18 59 25 15 53 13 74 -6z"/>
<path d="M16063 2245 c-29 -20 -46 -77 -38 -125 9 -55 52 -90 111 -90 31 0 44
-4 44 -14 0 -28 -30 -46 -76 -46 -37 0 -44 -3 -44 -20 0 -18 7 -20 55 -20 46
0 60 4 80 25 14 13 25 36 25 50 0 23 3 25 49 25 73 0 81 12 81 126 0 87 -2 94
-20 94 -17 0 -19 -8 -22 -87 l-3 -88 -42 -3 -43 -3 0 66 c0 60 -3 69 -29 96
-34 33 -91 40 -128 14z m99 -42 c13 -12 18 -31 18 -75 l0 -58 -33 0 c-55 0
-77 23 -77 80 0 36 5 52 18 59 25 15 53 13 74 -6z"/>
<path d="M16438 2230 c-29 -29 -30 -34 -26 -92 4 -48 9 -65 28 -80 33 -27 65
-32 100 -15 26 14 34 14 58 1 37 -19 116 -18 136 2 12 12 16 37 16 110 0 87
-2 94 -20 94 -17 0 -19 -8 -22 -87 l-3 -88 -36 -3 c-57 -5 -69 15 -69 109 l0
79 -66 0 c-60 0 -68 -3 -96 -30z m122 -75 c0 -62 -1 -65 -27 -72 -55 -14 -83
8 -83 66 0 47 24 71 72 71 l38 0 0 -65z"/>
<path d="M10300 2122 c0 -136 -5 -152 -47 -152 -16 0 -23 -6 -23 -20 0 -15 7
-20 26 -20 73 0 94 43 94 200 l0 120 -25 0 -25 0 0 -128z"/>
<path d="M12230 2122 c0 -121 -1 -130 -23 -150 -32 -30 -96 -30 -125 1 -16 17
-22 37 -24 87 -3 57 -5 65 -23 65 -18 0 -20 -6 -19 -67 1 -71 16 -105 59 -134
31 -20 109 -20 140 0 51 34 60 61 64 198 l3 128 -26 0 -26 0 0 -128z"/>
<path d="M13250 2122 c0 -136 -5 -152 -47 -152 -16 0 -23 -6 -23 -20 0 -15 7
-20 26 -20 73 0 94 43 94 200 l0 120 -25 0 -25 0 0 -128z"/>
<path d="M8224 2059 c-8 -14 11 -33 25 -25 16 10 13 36 -3 36 -8 0 -18 -5 -22
-11z"/>
<path d="M8580 1961 c0 -24 25 -34 40 -16 15 18 5 35 -21 35 -12 0 -19 -7 -19
-19z"/>
<path d="M8664 1965 c-8 -19 12 -36 33 -28 19 7 12 37 -10 41 -9 2 -20 -4 -23
-13z"/>
<path d="M10080 1961 c0 -27 19 -36 37 -18 18 18 9 37 -18 37 -12 0 -19 -7
-19 -19z"/>
<path d="M10164 1965 c-8 -19 12 -36 33 -28 19 7 12 37 -10 41 -9 2 -20 -4
-23 -13z"/>
<path d="M15581 1966 c-16 -19 -6 -36 20 -36 15 0 20 6 17 22 -4 27 -21 33
-37 14z"/>
<path d="M16291 1966 c-16 -19 -6 -36 20 -36 15 0 20 6 17 22 -4 27 -21 33
-37 14z"/>
<path d="M15074 1858 c8 -31 17 -43 30 -43 13 0 22 12 31 43 11 35 11 42 -1
42 -8 0 -14 -8 -14 -17 0 -10 -5 -25 -10 -33 -7 -12 -11 -8 -16 18 -4 17 -12
32 -20 32 -10 0 -10 -8 0 -42z"/>
</g>
</svg>
