<?xml version="1.0" encoding="UTF-8" standalone="no"?> <svg width="512" height="512" viewBox="0 0 512 512" fill="none" xmlns="http://www.w3.org/2000/svg">
<path d="M424 8H152C149.878 7.99921 147.842 8.84084 146.34 10.34L82.34 74.34C80.8408 75.8421 79.9992 77.8778 80 80V496C80 498.122 80.8429 500.157 82.3431 501.657C83.8434 503.157 85.8783 504 88 504H424C426.122 504 428.157 503.157 429.657 501.657C431.157 500.157 432 498.122 432 496V16C432 13.8783 431.157 11.8434 429.657 10.3431C428.157 8.84285 426.122 8 424 8ZM144 35.31V72H107.31L144 35.31ZM416 488H96V88H152C154.122 88 156.157 87.1571 157.657 85.6569C159.157 84.1566 160 82.1217 160 80V24H416V488Z" fill="black"/>
<path d="M164 152H160V128H184C186.122 128 188.157 127.157 189.657 125.657C191.157 124.157 192 122.122 192 120C192 117.878 191.157 115.843 189.657 114.343C188.157 112.843 186.122 112 184 112H160V104C160 101.878 159.157 99.8434 157.657 98.3431C156.157 96.8429 154.122 96 152 96C149.878 96 147.843 96.8429 146.343 98.3431C144.843 99.8434 144 101.878 144 104V112H140C132.574 112 125.452 114.95 120.201 120.201C114.95 125.452 112 132.574 112 140C112 147.426 114.95 154.548 120.201 159.799C125.452 165.05 132.574 168 140 168H144V192H120C117.878 192 115.843 192.843 114.343 194.343C112.843 195.843 112 197.878 112 200C112 202.122 112.843 204.157 114.343 205.657C115.843 207.157 117.878 208 120 208H144V216C144 218.122 144.843 220.157 146.343 221.657C147.843 223.157 149.878 224 152 224C154.122 224 156.157 223.157 157.657 221.657C159.157 220.157 160 218.122 160 216V208H164C171.426 208 178.548 205.05 183.799 199.799C189.05 194.548 192 187.426 192 180C192 172.574 189.05 165.452 183.799 160.201C178.548 154.95 171.426 152 164 152ZM144 152H140C136.817 152 133.765 150.736 131.515 148.485C129.264 146.235 128 143.183 128 140C128 136.817 129.264 133.765 131.515 131.515C133.765 129.264 136.817 128 140 128H144V152ZM164 192H160V168H164C167.183 168 170.235 169.264 172.485 171.515C174.736 173.765 176 176.817 176 180C176 183.183 174.736 186.235 172.485 188.485C170.235 190.736 167.183 192 164 192Z" fill="black"/>
<path d="M224 144H392C394.122 144 396.157 143.157 397.657 141.657C399.157 140.157 400 138.122 400 136C400 133.878 399.157 131.843 397.657 130.343C396.157 128.843 394.122 128 392 128H224C221.878 128 219.843 128.843 218.343 130.343C216.843 131.843 216 133.878 216 136C216 138.122 216.843 140.157 218.343 141.657C219.843 143.157 221.878 144 224 144Z" fill="black"/>
<path d="M224 168H392C394.122 168 396.157 167.157 397.657 165.657C399.157 164.157 400 162.122 400 160C400 157.878 399.157 155.843 397.657 154.343C396.157 152.843 394.122 152 392 152H224C221.878 152 219.843 152.843 218.343 154.343C216.843 155.843 216 157.878 216 160C216 162.122 216.843 164.157 218.343 165.657C219.843 167.157 221.878 168 224 168Z" fill="black"/>
<path d="M224 192H392C394.122 192 396.157 191.157 397.657 189.657C399.157 188.157 400 186.122 400 184C400 181.878 399.157 179.843 397.657 178.343C396.157 176.843 394.122 176 392 176H224C221.878 176 219.843 176.843 218.343 178.343C216.843 179.843 216 181.878 216 184C216 186.122 216.843 188.157 218.343 189.657C219.843 191.157 221.878 192 224 192Z" fill="black"/>
<path d="M360 80H392C394.122 80 396.157 79.1571 397.657 77.6569C399.157 76.1566 400 74.1217 400 72V40C400 37.8783 399.157 35.8434 397.657 34.3431C396.157 32.8429 394.122 32 392 32H360C357.878 32 355.843 32.8429 354.343 34.3431C352.843 35.8434 352 37.8783 352 40V72C352 74.1217 352.843 76.1566 354.343 77.6569C355.843 79.1571 357.878 80 360 80ZM368 48H384V64H368V48Z" fill="black"/>
<path d="M296 80H328C330.122 80 332.157 79.1571 333.657 77.6569C335.157 76.1566 336 74.1217 336 72V40C336 37.8783 335.157 35.8434 333.657 34.3431C332.157 32.8429 330.122 32 328 32H296C293.878 32 291.843 32.8429 290.343 34.3431C288.843 35.8434 288 37.8783 288 40V72C288 74.1217 288.843 76.1566 290.343 77.6569C291.843 79.1571 293.878 80 296 80ZM304 48H320V64H304V48Z" fill="black"/>
<path d="M392 232H120C117.878 232 115.843 232.843 114.343 234.343C112.843 235.843 112 237.878 112 240V416C112 418.122 112.843 420.157 114.343 421.657C115.843 423.157 117.878 424 120 424H392C394.122 424 396.157 423.157 397.657 421.657C399.157 420.157 400 418.122 400 416V240C400 237.878 399.157 235.843 397.657 234.343C396.157 232.843 394.122 232 392 232ZM384 272H360V248H384V272ZM232 288V408H184V288H232ZM184 272V248H232V272H184ZM248 288H344V408H248V288ZM248 272V248H344V272H248ZM168 248V272H128V248H168ZM128 288H168V408H128V288ZM360 408V288H384V408H360Z" fill="black"/>
<path d="M385.14 440.006C368.881 429.921 348.197 435.757 334.263 444.582C332.483 445.709 330.707 446.904 328.99 448.059C321.419 453.15 314.262 457.959 307.536 456.911C303.636 456.305 299.677 453.606 295.483 450.749C290.81 447.563 285.513 443.949 279.035 442.382C264.007 438.735 247.435 448.671 243.574 463.644C243.311 464.661 243.252 465.72 243.398 466.761C243.545 467.801 243.895 468.802 244.429 469.707C244.962 470.612 245.669 471.403 246.508 472.035C247.347 472.667 248.303 473.127 249.32 473.39C250.337 473.653 251.396 473.712 252.437 473.566C253.477 473.419 254.478 473.069 255.383 472.535C256.288 472.002 257.079 471.295 257.711 470.456C258.343 469.617 258.803 468.661 259.066 467.644C260.766 461.044 268.643 456.329 275.266 457.933C278.914 458.818 282.588 461.322 286.478 463.972C291.698 467.53 297.615 471.562 305.083 472.723C318.008 474.734 328.583 467.615 337.923 461.337C339.623 460.192 341.233 459.111 342.828 458.101C352.666 451.871 366.728 447.416 376.71 453.601C377.603 454.155 378.596 454.527 379.633 454.697C380.67 454.867 381.731 454.831 382.754 454.591C383.777 454.351 384.742 453.912 385.596 453.299C386.449 452.686 387.173 451.911 387.727 451.018C388.281 450.125 388.653 449.132 388.823 448.095C388.993 447.058 388.957 445.998 388.717 444.975C388.477 443.952 388.038 442.986 387.425 442.132C386.812 441.279 386.037 440.555 385.144 440.001L385.14 440.006Z" fill="black"/>
</svg>
