<?xml version="1.0" encoding="UTF-8" standalone="no"?> <svg xmlns="http://www.w3.org/2000/svg" viewBox="0 0 64 64"><title>1</title><g id="Layer_3" data-name="Layer 3"><path d="M47.67,44.69a1,1,0,0,0-1,1v8a3.38,3.38,0,0,1-3.39,3.37H20.7a3.37,3.37,0,0,1-3.37-3.37v-8a1,1,0,0,0-2,0v8a5.38,5.38,0,0,0,5.37,5.37H43.28a5.39,5.39,0,0,0,5.39-5.37v-8A1,1,0,0,0,47.67,44.69Z"/><path d="M16.33,19.31a1,1,0,0,0,1-1v-8A3.37,3.37,0,0,1,20.7,6.92H43.28a3.38,3.38,0,0,1,3.39,3.37v8a1,1,0,1,0,2,0v-8a5.39,5.39,0,0,0-5.39-5.37H20.7a5.38,5.38,0,0,0-5.37,5.37v8A1,1,0,0,0,16.33,19.31Z"/><path d="M29.13,51.87A2.87,2.87,0,1,0,32,49,2.87,2.87,0,0,0,29.13,51.87Zm3.74,0A.87.87,0,1,1,32,51,.87.87,0,0,1,32.87,51.87Z"/><path d="M60.71,31.7l-3.06-3.06h0L49.7,20.7a1,1,0,0,0-1.41,0l-5,5V23.27a1,1,0,0,0-2,0v4.45l-.93.93h0L37.28,31.7a1,1,0,0,0,1.41,1.41L40,31.77V40.6a1,1,0,0,0,1,1h15.9a1,1,0,0,0,1-1V31.77l1.35,1.35a1,1,0,0,0,1.41-1.41ZM55.94,39.6H42V29.77l.93-.93h0l6-6,7,7Z"/><path d="M40.08,19.3a1,1,0,0,0-.22-1.09l-3.3-3.3a1,1,0,0,0-1.41,1.41l1.59,1.59H24.85a1,1,0,0,0,0,2H36.74l-1.59,1.59a1,1,0,1,0,1.41,1.41l3.3-3.3A1,1,0,0,0,40.08,19.3Z"/><path d="M40.15,43.9a1,1,0,0,0-1-1H27.26l1.59-1.59a1,1,0,0,0-1.41-1.41l-3.3,3.3a1,1,0,0,0,0,1.41l3.3,3.3a1,1,0,0,0,1.41-1.41L27.26,44.9H39.15A1,1,0,0,0,40.15,43.9Z"/><path d="M23.51,40.47l0,0a12,12,0,1,0-17.12-.07h0a12,12,0,0,0,17.08.09ZM15,22a10,10,0,0,1,8.31,15.58,8.84,8.84,0,0,0-5.19-5.23,4.15,4.15,0,1,0-6.22,0A8.84,8.84,0,0,0,6.7,37.58,10,10,0,0,1,15,22Zm-2.15,7.65A2.15,2.15,0,1,1,15,31.79,2.15,2.15,0,0,1,12.86,29.64ZM8.27,39.38a6.85,6.85,0,0,1,13.47,0,9.95,9.95,0,0,1-13.47,0Z"/></g></svg>